# Blender 5.0.1
# www.blender.org
mtllib hook.mtl
o Hook
v -0.013299 0.009325 -0.000000
v -0.012943 0.009325 -0.001330
v -0.011969 0.009325 -0.002303
v -0.010639 0.009325 -0.002660
v -0.009309 0.009325 -0.002303
v -0.008336 0.009325 -0.001330
v -0.007979 0.009325 -0.000000
v -0.008336 0.009325 0.001330
v -0.009309 0.009325 0.002304
v -0.010639 0.009325 0.002660
v -0.011969 0.009325 0.002304
v -0.012943 0.009325 0.001330
v -0.013185 0.011060 -0.000000
v -0.012832 0.011014 -0.001330
v -0.011867 0.010887 -0.002303
v -0.010548 0.010713 -0.002660
v -0.009230 0.010540 -0.002303
v -0.008264 0.010413 -0.001330
v -0.007911 0.010366 -0.000000
v -0.008264 0.010413 0.001330
v -0.009230 0.010540 0.002304
v -0.010548 0.010713 0.002660
v -0.011867 0.010887 0.002304
v -0.012832 0.011014 0.001330
v -0.012846 0.025955 -0.000000
v -0.012502 0.025863 -0.001330
v -0.011561 0.025611 -0.002303
v -0.010277 0.025267 -0.002660
v -0.008992 0.024923 -0.002303
v -0.008052 0.024671 -0.001330
v -0.007707 0.024578 -0.000000
v -0.008052 0.024671 0.001330
v -0.008992 0.024923 0.002304
v -0.010277 0.025267 0.002660
v -0.011561 0.025611 0.002304
v -0.012502 0.025863 0.001330
v -0.012287 0.027602 -0.000000
v -0.011957 0.027466 -0.001330
v -0.011058 0.027093 -0.002303
v -0.009829 0.026585 -0.002660
v -0.008601 0.026076 -0.002303
v -0.007701 0.025703 -0.001330
v -0.007372 0.025567 -0.000000
v -0.007701 0.025703 0.001330
v -0.008601 0.026076 0.002304
v -0.009829 0.026585 0.002660
v -0.011058 0.027093 0.002304
v -0.011957 0.027466 0.001330
v -0.011517 0.029163 -0.000000
v -0.011209 0.028984 -0.001330
v -0.010365 0.028498 -0.002303
v -0.009214 0.027833 -0.002660
v -0.008062 0.027168 -0.002303
v -0.007219 0.026681 -0.001330
v -0.006910 0.026503 -0.000000
v -0.007219 0.026681 0.001330
v -0.008062 0.027168 0.002304
v -0.009214 0.027833 0.002660
v -0.010365 0.028498 0.002304
v -0.011209 0.028984 0.001330
v -0.010551 0.030609 -0.000000
v -0.010268 0.030392 -0.001330
v -0.009496 0.029799 -0.002303
v -0.008441 0.028990 -0.002660
v -0.007386 0.028180 -0.002303
v -0.006613 0.027588 -0.001330
v -0.006330 0.027371 -0.000000
v -0.006613 0.027588 0.001330
v -0.007386 0.028180 0.002304
v -0.008441 0.028990 0.002660
v -0.009496 0.029799 0.002304
v -0.010268 0.030392 0.001330
v -0.009404 0.031917 -0.000000
v -0.009152 0.031665 -0.001330
v -0.008463 0.030976 -0.002303
v -0.007523 0.030036 -0.002660
v -0.006583 0.029096 -0.002303
v -0.005894 0.028407 -0.001330
v -0.005642 0.028155 -0.000000
v -0.005894 0.028407 0.001330
v -0.006583 0.029096 0.002304
v -0.007523 0.030036 0.002660
v -0.008463 0.030976 0.002304
v -0.009152 0.031665 0.001330
v -0.008096 0.033064 -0.000000
v -0.007879 0.032781 -0.001330
v -0.007286 0.032009 -0.002303
v -0.006477 0.030954 -0.002660
v -0.005667 0.029899 -0.002303
v -0.005074 0.029126 -0.001330
v -0.004858 0.028844 -0.000000
v -0.005074 0.029126 0.001330
v -0.005667 0.029899 0.002304
v -0.006477 0.030954 0.002660
v -0.007286 0.032009 0.002304
v -0.007879 0.032781 0.001330
v -0.006649 0.034030 -0.000000
v -0.006471 0.033722 -0.001330
v -0.005985 0.032879 -0.002303
v -0.005320 0.031727 -0.002660
v -0.004655 0.030575 -0.002303
v -0.004168 0.029732 -0.001330
v -0.003990 0.029423 -0.000000
v -0.004168 0.029732 0.001330
v -0.004655 0.030575 0.002304
v -0.005320 0.031727 0.002660
v -0.005985 0.032879 0.002304
v -0.006471 0.033722 0.001330
v -0.005089 0.034800 -0.000000
v -0.004953 0.034470 -0.001330
v -0.004580 0.033571 -0.002303
v -0.004071 0.032342 -0.002660
v -0.003563 0.031114 -0.002303
v -0.003190 0.030214 -0.001330
v -0.003054 0.029885 -0.000000
v -0.003190 0.030214 0.001330
v -0.003563 0.031114 0.002304
v -0.004071 0.032342 0.002660
v -0.004580 0.033571 0.002304
v -0.004953 0.034470 0.001330
v -0.003442 0.035359 -0.000000
v -0.003350 0.035015 -0.001330
v -0.003098 0.034074 -0.002303
v -0.002754 0.032790 -0.002660
v -0.002409 0.031505 -0.002303
v -0.002157 0.030565 -0.001330
v -0.002065 0.030221 -0.000000
v -0.002157 0.030565 0.001330
v -0.002409 0.031505 0.002304
v -0.002754 0.032790 0.002660
v -0.003098 0.034074 0.002304
v -0.003350 0.035015 0.001330
v -0.001736 0.035698 -0.000000
v -0.001689 0.035345 -0.001330
v -0.001562 0.034380 -0.002303
v -0.001389 0.033061 -0.002660
v -0.001215 0.031743 -0.002303
v -0.001088 0.030777 -0.001330
v -0.001042 0.030424 -0.000000
v -0.001088 0.030777 0.001330
v -0.001215 0.031743 0.002304
v -0.001389 0.033061 0.002660
v -0.001562 0.034380 0.002304
v -0.001689 0.035345 0.001330
v -0.000000 0.035812 -0.000000
v -0.000000 0.035456 -0.001330
v -0.000000 0.034482 -0.002303
v -0.000000 0.033152 -0.002660
v -0.000000 0.031822 -0.002303
v -0.000000 0.030849 -0.001330
v -0.000000 0.030492 -0.000000
v -0.000000 0.030849 0.001330
v -0.000000 0.031822 0.002304
v -0.000000 0.033152 0.002660
v -0.000000 0.034482 0.002304
v -0.000000 0.035456 0.001330
v 0.001736 0.035698 -0.000000
v 0.001689 0.035345 -0.001330
v 0.001562 0.034380 -0.002303
v 0.001389 0.033061 -0.002660
v 0.001215 0.031743 -0.002303
v 0.001088 0.030777 -0.001330
v 0.001042 0.030424 -0.000000
v 0.001088 0.030777 0.001330
v 0.001215 0.031743 0.002304
v 0.001389 0.033061 0.002660
v 0.001562 0.034380 0.002304
v 0.001689 0.035345 0.001330
v 0.003442 0.035359 -0.000000
v 0.003350 0.035015 -0.001330
v 0.003098 0.034074 -0.002303
v 0.002754 0.032790 -0.002660
v 0.002409 0.031505 -0.002303
v 0.002157 0.030565 -0.001330
v 0.002065 0.030221 -0.000000
v 0.002157 0.030565 0.001330
v 0.002409 0.031505 0.002304
v 0.002754 0.032790 0.002660
v 0.003098 0.034074 0.002304
v 0.003350 0.035015 0.001330
v 0.005089 0.034800 -0.000000
v 0.004953 0.034470 -0.001330
v 0.004580 0.033571 -0.002303
v 0.004071 0.032342 -0.002660
v 0.003563 0.031114 -0.002303
v 0.003190 0.030214 -0.001330
v 0.003054 0.029885 -0.000000
v 0.003190 0.030214 0.001330
v 0.003563 0.031114 0.002304
v 0.004071 0.032342 0.002660
v 0.004580 0.033571 0.002304
v 0.004953 0.034470 0.001330
v 0.006649 0.034030 -0.000000
v 0.006471 0.033722 -0.001330
v 0.005985 0.032879 -0.002303
v 0.005320 0.031727 -0.002660
v 0.004655 0.030575 -0.002303
v 0.004168 0.029732 -0.001330
v 0.003990 0.029423 -0.000000
v 0.004168 0.029732 0.001330
v 0.004655 0.030575 0.002304
v 0.005320 0.031727 0.002660
v 0.005985 0.032879 0.002304
v 0.006471 0.033722 0.001330
v 0.008096 0.033064 -0.000000
v 0.007879 0.032781 -0.001330
v 0.007286 0.032009 -0.002303
v 0.006477 0.030954 -0.002660
v 0.005667 0.029899 -0.002303
v 0.005074 0.029126 -0.001330
v 0.004858 0.028844 -0.000000
v 0.005074 0.029126 0.001330
v 0.005667 0.029899 0.002304
v 0.006477 0.030954 0.002660
v 0.007286 0.032009 0.002304
v 0.007879 0.032781 0.001330
v 0.009404 0.031917 -0.000000
v 0.009152 0.031665 -0.001330
v 0.008463 0.030976 -0.002303
v 0.007523 0.030036 -0.002660
v 0.006583 0.029096 -0.002303
v 0.005894 0.028407 -0.001330
v 0.005642 0.028155 -0.000000
v 0.005894 0.028407 0.001330
v 0.006583 0.029096 0.002304
v 0.007523 0.030036 0.002660
v 0.008463 0.030976 0.002304
v 0.009152 0.031665 0.001330
v 0.010551 0.030609 -0.000000
v 0.010268 0.030392 -0.001330
v 0.009496 0.029799 -0.002303
v 0.008441 0.028990 -0.002660
v 0.007386 0.028180 -0.002303
v 0.006613 0.027588 -0.001330
v 0.006330 0.027371 -0.000000
v 0.006613 0.027588 0.001330
v 0.007386 0.028180 0.002304
v 0.008441 0.028990 0.002660
v 0.009496 0.029799 0.002304
v 0.010268 0.030392 0.001330
v 0.011517 0.029163 -0.000000
v 0.011209 0.028984 -0.001330
v 0.010366 0.028498 -0.002303
v 0.009214 0.027833 -0.002660
v 0.008062 0.027168 -0.002303
v 0.007219 0.026681 -0.001330
v 0.006910 0.026503 -0.000000
v 0.007219 0.026681 0.001330
v 0.008062 0.027168 0.002304
v 0.009214 0.027833 0.002660
v 0.010366 0.028498 0.002304
v 0.011209 0.028984 0.001330
v 0.012287 0.027602 -0.000000
v 0.011957 0.027466 -0.001330
v 0.011058 0.027093 -0.002303
v 0.009829 0.026585 -0.002660
v 0.008601 0.026076 -0.002303
v 0.007701 0.025703 -0.001330
v 0.007372 0.025567 -0.000000
v 0.007701 0.025703 0.001330
v 0.008601 0.026076 0.002304
v 0.009829 0.026585 0.002660
v 0.011058 0.027093 0.002304
v 0.011957 0.027466 0.001330
v 0.012846 0.025955 -0.000000
v 0.012502 0.025863 -0.001330
v 0.011561 0.025611 -0.002303
v 0.010277 0.025267 -0.002660
v 0.008992 0.024923 -0.002303
v 0.008052 0.024671 -0.001330
v 0.007707 0.024578 -0.000000
v 0.008052 0.024671 0.001330
v 0.008992 0.024923 0.002304
v 0.010277 0.025267 0.002660
v 0.011561 0.025611 0.002304
v 0.012502 0.025863 0.001330
v 0.013185 0.011060 -0.000000
v 0.012832 0.011014 -0.001330
v 0.011867 0.010887 -0.002303
v 0.010548 0.010713 -0.002660
v 0.009230 0.010540 -0.002303
v 0.008264 0.010413 -0.001330
v 0.007911 0.010366 -0.000000
v 0.008264 0.010413 0.001330
v 0.009230 0.010540 0.002304
v 0.010548 0.010713 0.002660
v 0.011867 0.010887 0.002304
v 0.012832 0.011014 0.001330
v 0.013299 0.009325 -0.000000
v 0.012943 0.009325 -0.001330
v 0.011969 0.009325 -0.002303
v 0.010639 0.009325 -0.002660
v 0.009309 0.009325 -0.002303
v 0.008336 0.009325 -0.001330
v 0.007979 0.009325 -0.000000
v 0.008336 0.009325 0.001330
v 0.009309 0.009325 0.002304
v 0.010639 0.009325 0.002660
v 0.011969 0.009325 0.002304
v 0.012943 0.009325 0.001330
v 0.013185 0.007589 -0.000000
v 0.012832 0.007635 -0.001330
v 0.011867 0.007762 -0.002303
v 0.010548 0.007936 -0.002660
v 0.009230 0.008109 -0.002303
v 0.008264 0.008237 -0.001330
v 0.007911 0.008283 -0.000000
v 0.008264 0.008237 0.001330
v 0.009230 0.008109 0.002304
v 0.010548 0.007936 0.002660
v 0.011867 0.007762 0.002304
v 0.012832 0.007635 0.001330
v 0.012846 0.005883 -0.000000
v 0.012502 0.005975 -0.001330
v 0.011561 0.006227 -0.002303
v 0.010277 0.006571 -0.002660
v 0.008992 0.006915 -0.002303
v 0.008052 0.007167 -0.001330
v 0.007707 0.007259 -0.000000
v 0.008052 0.007167 0.001330
v 0.008992 0.006915 0.002304
v 0.010277 0.006571 0.002660
v 0.011561 0.006227 0.002304
v 0.012502 0.005975 0.001330
v 0.012287 0.004235 -0.000000
v 0.011957 0.004372 -0.001330
v 0.011058 0.004744 -0.002303
v 0.009829 0.005253 -0.002660
v 0.008601 0.005762 -0.002303
v 0.007701 0.006135 -0.001330
v 0.007372 0.006271 -0.000000
v 0.007701 0.006135 0.001330
v 0.008601 0.005762 0.002304
v 0.009829 0.005253 0.002660
v 0.011058 0.004744 0.002304
v 0.011957 0.004372 0.001330
v 0.011517 0.002675 -0.000000
v 0.011209 0.002853 -0.001330
v 0.010366 0.003340 -0.002303
v 0.009214 0.004005 -0.002660
v 0.008062 0.004670 -0.002303
v 0.007219 0.005157 -0.001330
v 0.006910 0.005335 -0.000000
v 0.007219 0.005157 0.001330
v 0.008062 0.004670 0.002304
v 0.009214 0.004005 0.002660
v 0.010366 0.003340 0.002304
v 0.011209 0.002853 0.001330
v 0.010551 0.001229 -0.000000
v 0.010268 0.001446 -0.001330
v 0.009496 0.002038 -0.002303
v 0.008441 0.002848 -0.002660
v 0.007386 0.003658 -0.002303
v 0.006613 0.004250 -0.001330
v 0.006330 0.004467 -0.000000
v 0.006613 0.004250 0.001330
v 0.007386 0.003658 0.002304
v 0.008441 0.002848 0.002660
v 0.009496 0.002038 0.002304
v 0.010268 0.001446 0.001330
v 0.009404 -0.000079 -0.000000
v 0.009152 0.000173 -0.001330
v 0.008463 0.000861 -0.002303
v 0.007523 0.001802 -0.002660
v 0.006583 0.002742 -0.002303
v 0.005894 0.003430 -0.001330
v 0.005642 0.003682 -0.000000
v 0.005894 0.003430 0.001330
v 0.006583 0.002742 0.002304
v 0.007523 0.001802 0.002660
v 0.008463 0.000861 0.002304
v 0.009152 0.000173 0.001330
v 0.008096 -0.001226 -0.000000
v 0.007879 -0.000943 -0.001330
v 0.007286 -0.000171 -0.002303
v 0.006477 0.000884 -0.002660
v 0.005667 0.001939 -0.002303
v 0.005074 0.002711 -0.001330
v 0.004858 0.002994 -0.000000
v 0.005074 0.002711 0.001330
v 0.005667 0.001939 0.002304
v 0.006477 0.000884 0.002660
v 0.007286 -0.000171 0.002304
v 0.007879 -0.000943 0.001330
v 0.006649 -0.002193 -0.000000
v 0.006471 -0.001884 -0.001330
v 0.005985 -0.001041 -0.002303
v 0.005320 0.000111 -0.002660
v 0.004655 0.001263 -0.002303
v 0.004168 0.002106 -0.001330
v 0.003990 0.002414 -0.000000
v 0.004168 0.002106 0.001330
v 0.004655 0.001263 0.002304
v 0.005320 0.000111 0.002660
v 0.005985 -0.001041 0.002304
v 0.006471 -0.001884 0.001330
v 0.005089 -0.002962 -0.000000
v 0.004953 -0.002633 -0.001330
v 0.004580 -0.001733 -0.002303
v 0.004071 -0.000505 -0.002660
v 0.003563 0.000724 -0.002303
v 0.003190 0.001623 -0.001330
v 0.003054 0.001953 -0.000000
v 0.003190 0.001623 0.001330
v 0.003563 0.000724 0.002304
v 0.004071 -0.000505 0.002660
v 0.004580 -0.001733 0.002304
v 0.004953 -0.002633 0.001330
v 0.003442 -0.003521 -0.000000
v 0.003350 -0.003177 -0.001330
v 0.003098 -0.002237 -0.002303
v 0.002754 -0.000952 -0.002660
v 0.002409 0.000333 -0.002303
v 0.002157 0.001273 -0.001330
v 0.002065 0.001617 -0.000000
v 0.002157 0.001273 0.001330
v 0.002409 0.000333 0.002304
v 0.002754 -0.000952 0.002660
v 0.003098 -0.002237 0.002304
v 0.003350 -0.003177 0.001330
v 0.001736 -0.003861 -0.000000
v 0.001689 -0.003507 -0.001330
v 0.001562 -0.002542 -0.002303
v 0.001389 -0.001223 -0.002660
v 0.001215 0.000095 -0.002303
v 0.001088 0.001060 -0.001330
v 0.001042 0.001414 -0.000000
v 0.001088 0.001060 0.001330
v 0.001215 0.000095 0.002304
v 0.001389 -0.001223 0.002660
v 0.001562 -0.002542 0.002304
v 0.001689 -0.003507 0.001330
v -0.000000 -0.003974 -0.000000
v -0.000000 -0.003618 -0.001330
v -0.000000 -0.002644 -0.002303
v -0.000000 -0.001314 -0.002660
v -0.000000 0.000015 -0.002303
v -0.000000 0.000989 -0.001330
v -0.000000 0.001345 -0.000000
v -0.000000 0.000989 0.001330
v -0.000000 0.000015 0.002304
v -0.000000 -0.001314 0.002660
v -0.000000 -0.002644 0.002304
v -0.000000 -0.003618 0.001330
v -0.001736 -0.003861 -0.000000
v -0.001689 -0.003507 -0.001330
v -0.001562 -0.002542 -0.002303
v -0.001389 -0.001223 -0.002660
v -0.001215 0.000095 -0.002303
v -0.001088 0.001060 -0.001330
v -0.001042 0.001414 -0.000000
v -0.001088 0.001060 0.001330
v -0.001215 0.000095 0.002304
v -0.001389 -0.001223 0.002660
v -0.001562 -0.002542 0.002304
v -0.001689 -0.003507 0.001330
v -0.003442 -0.003521 -0.000000
v -0.003350 -0.003177 -0.001330
v -0.003098 -0.002237 -0.002303
v -0.002754 -0.000952 -0.002660
v -0.002409 0.000333 -0.002303
v -0.002157 0.001273 -0.001330
v -0.002065 0.001617 -0.000000
v -0.002157 0.001273 0.001330
v -0.002409 0.000333 0.002304
v -0.002754 -0.000952 0.002660
v -0.003098 -0.002237 0.002304
v -0.003350 -0.003177 0.001330
v -0.005089 -0.002962 -0.000000
v -0.004953 -0.002633 -0.001330
v -0.004580 -0.001733 -0.002303
v -0.004071 -0.000505 -0.002660
v -0.003563 0.000724 -0.002303
v -0.003190 0.001623 -0.001330
v -0.003054 0.001953 -0.000000
v -0.003190 0.001623 0.001330
v -0.003563 0.000724 0.002304
v -0.004071 -0.000505 0.002660
v -0.004580 -0.001733 0.002304
v -0.004953 -0.002633 0.001330
v -0.006649 -0.002193 -0.000000
v -0.006471 -0.001884 -0.001330
v -0.005985 -0.001041 -0.002303
v -0.005320 0.000111 -0.002660
v -0.004655 0.001263 -0.002303
v -0.004168 0.002106 -0.001330
v -0.003990 0.002414 -0.000000
v -0.004168 0.002106 0.001330
v -0.004655 0.001263 0.002304
v -0.005320 0.000111 0.002660
v -0.005985 -0.001041 0.002304
v -0.006471 -0.001884 0.001330
v -0.008096 -0.001226 -0.000000
v -0.007879 -0.000943 -0.001330
v -0.007286 -0.000171 -0.002303
v -0.006477 0.000884 -0.002660
v -0.005667 0.001939 -0.002303
v -0.005074 0.002711 -0.001330
v -0.004858 0.002994 -0.000000
v -0.005074 0.002711 0.001330
v -0.005667 0.001939 0.002304
v -0.006477 0.000884 0.002660
v -0.007286 -0.000171 0.002304
v -0.007879 -0.000943 0.001330
v -0.009404 -0.000079 -0.000000
v -0.009152 0.000173 -0.001330
v -0.008463 0.000861 -0.002303
v -0.007523 0.001802 -0.002660
v -0.006583 0.002742 -0.002303
v -0.005894 0.003430 -0.001330
v -0.005642 0.003682 -0.000000
v -0.005894 0.003430 0.001330
v -0.006583 0.002742 0.002304
v -0.007523 0.001802 0.002660
v -0.008463 0.000861 0.002304
v -0.009152 0.000173 0.001330
v -0.010551 0.001229 -0.000000
v -0.010268 0.001446 -0.001330
v -0.009496 0.002038 -0.002303
v -0.008441 0.002848 -0.002660
v -0.007386 0.003658 -0.002303
v -0.006613 0.004250 -0.001330
v -0.006330 0.004467 -0.000000
v -0.006613 0.004250 0.001330
v -0.007386 0.003658 0.002304
v -0.008441 0.002848 0.002660
v -0.009496 0.002038 0.002304
v -0.010268 0.001446 0.001330
v -0.011517 0.002675 -0.000000
v -0.011209 0.002853 -0.001330
v -0.010365 0.003340 -0.002303
v -0.009214 0.004005 -0.002660
v -0.008062 0.004670 -0.002303
v -0.007219 0.005157 -0.001330
v -0.006910 0.005335 -0.000000
v -0.007219 0.005157 0.001330
v -0.008062 0.004670 0.002304
v -0.009214 0.004005 0.002660
v -0.010365 0.003340 0.002304
v -0.011209 0.002853 0.001330
v -0.012287 0.004235 -0.000000
v -0.011957 0.004372 -0.001330
v -0.011058 0.004744 -0.002303
v -0.009829 0.005253 -0.002660
v -0.008601 0.005762 -0.002303
v -0.007701 0.006135 -0.001330
v -0.007372 0.006271 -0.000000
v -0.007701 0.006135 0.001330
v -0.008601 0.005762 0.002304
v -0.009829 0.005253 0.002660
v -0.011058 0.004744 0.002304
v -0.011957 0.004372 0.001330
v -0.012846 0.005883 -0.000000
v -0.012502 0.005975 -0.001330
v -0.011561 0.006227 -0.002303
v -0.010277 0.006571 -0.002660
v -0.008992 0.006915 -0.002303
v -0.008052 0.007167 -0.001330
v -0.007707 0.007259 -0.000000
v -0.008052 0.007167 0.001330
v -0.008992 0.006915 0.002304
v -0.010277 0.006571 0.002660
v -0.011561 0.006227 0.002304
v -0.012502 0.005975 0.001330
v -0.013185 0.007589 -0.000000
v -0.012832 0.007635 -0.001330
v -0.011867 0.007762 -0.002303
v -0.010548 0.007936 -0.002660
v -0.009230 0.008109 -0.002303
v -0.008264 0.008237 -0.001330
v -0.007911 0.008283 -0.000000
v -0.008264 0.008237 0.001330
v -0.009230 0.008109 0.002304
v -0.010548 0.007936 0.002660
v -0.011867 0.007762 0.002304
v -0.012832 0.007635 0.001330
v -0.000000 0.020107 -0.031130
v 0.006073 0.020107 -0.030532
v 0.011913 0.020107 -0.028761
v 0.017295 0.020107 -0.025884
v 0.022012 0.020107 -0.022012
v 0.025884 0.020107 -0.017295
v 0.028761 0.020107 -0.011913
v 0.030532 0.020107 -0.006073
v 0.031130 0.020107 -0.000000
v 0.030532 0.020107 0.006073
v 0.028761 0.020107 0.011913
v 0.025884 0.020107 0.017295
v 0.022012 0.020107 0.022013
v 0.017295 0.020107 0.025884
v 0.011913 0.020107 0.028761
v 0.006073 0.020107 0.030532
v -0.000000 0.020107 0.031130
v -0.006073 0.020107 0.030532
v -0.011913 0.020107 0.028761
v -0.017295 0.020107 0.025884
v -0.022012 0.020107 0.022012
v -0.025884 0.020107 0.017295
v -0.028761 0.020107 0.011913
v -0.030532 0.020107 0.006073
v -0.031130 0.020107 -0.000000
v -0.030532 0.020107 -0.006073
v -0.028761 0.020107 -0.011913
v -0.025884 0.020107 -0.017295
v -0.022012 0.020107 -0.022012
v -0.017295 0.020107 -0.025884
v -0.011913 0.020107 -0.028761
v -0.006073 0.020107 -0.030532
v 0.014219 0.020107 -0.071484
v -0.000000 0.020107 -0.072885
v 0.027892 0.020107 -0.067337
v 0.040493 0.020107 -0.060601
v 0.051537 0.020107 -0.051537
v 0.060602 0.020107 -0.040493
v 0.067337 0.020107 -0.027892
v 0.071484 0.020107 -0.014219
v 0.072885 0.020107 -0.000000
v 0.071484 0.020107 0.014219
v 0.067337 0.020107 0.027892
v 0.060602 0.020107 0.040493
v 0.051537 0.020107 0.051538
v 0.040493 0.020107 0.060602
v 0.027892 0.020107 0.067337
v 0.014219 0.020107 0.071485
v -0.000000 0.020107 0.072885
v -0.014219 0.020107 0.071485
v -0.027892 0.020107 0.067337
v -0.040493 0.020107 0.060602
v -0.051537 0.020107 0.051538
v -0.060602 0.020107 0.040493
v -0.067337 0.020107 0.027892
v -0.071484 0.020107 0.014219
v -0.072885 0.020107 -0.000000
v -0.071484 0.020107 -0.014219
v -0.067337 0.020107 -0.027892
v -0.060601 0.020107 -0.040493
v -0.051537 0.020107 -0.051537
v -0.040493 0.020107 -0.060601
v -0.027892 0.020107 -0.067337
v -0.014219 0.020107 -0.071484
v 0.014219 0.040526 -0.071484
v -0.000000 0.040526 -0.072885
v 0.027892 0.040526 -0.067337
v 0.040493 0.040526 -0.060601
v 0.051537 0.040526 -0.051537
v 0.060602 0.040526 -0.040493
v 0.067337 0.040526 -0.027892
v 0.071484 0.040526 -0.014219
v 0.072885 0.040526 -0.000000
v 0.071484 0.040526 0.014219
v 0.067337 0.040526 0.027892
v 0.060602 0.040526 0.040493
v 0.051537 0.040526 0.051538
v 0.040493 0.040526 0.060602
v 0.027892 0.040526 0.067337
v 0.014219 0.040526 0.071485
v -0.000000 0.040526 0.072885
v -0.014219 0.040526 0.071485
v -0.027892 0.040526 0.067337
v -0.040493 0.040526 0.060602
v -0.051537 0.040526 0.051538
v -0.060602 0.040526 0.040493
v -0.067337 0.040526 0.027892
v -0.071484 0.040526 0.014219
v -0.072885 0.040526 -0.000000
v -0.071484 0.040526 -0.014219
v -0.067337 0.040526 -0.027892
v -0.060601 0.040526 -0.040493
v -0.051537 0.040526 -0.051537
v -0.040493 0.040526 -0.060601
v -0.027892 0.040526 -0.067337
v -0.014219 0.040526 -0.071484
vn -0.9640 0.0632 -0.2583
vn -0.7064 0.0463 -0.7063
vn -0.2589 0.0170 -0.9658
vn -0.2594 0.0169 -0.9656
vn -0.2635 0.0058 -0.9646
vn 0.2588 -0.0170 -0.9658
vn 0.2595 -0.0169 -0.9656
vn 0.2636 -0.0052 -0.9646
vn 0.7061 -0.0463 -0.7066
vn 0.9640 -0.0634 -0.2584
vn 0.9640 -0.0634 0.2584
vn 0.7065 -0.0463 0.7062
vn 0.2586 -0.0169 0.9658
vn 0.2637 -0.0052 0.9646
vn 0.2596 -0.0169 0.9656
vn -0.2588 0.0170 0.9658
vn -0.2636 0.0058 0.9646
vn -0.2595 0.0169 0.9656
vn -0.7065 0.0463 0.7062
vn -0.9641 0.0633 0.2581
vn -0.9668 0.0218 -0.2548
vn -0.7131 0.0153 -0.7009
vn -0.2631 0.0052 -0.9648
vn 0.2637 -0.0046 -0.9646
vn 0.7133 -0.0112 -0.7008
vn 0.9671 -0.0141 -0.2540
vn 0.9671 -0.0141 0.2542
vn 0.7136 -0.0112 0.7004
vn 0.2630 -0.0046 0.9648
vn -0.2632 0.0052 0.9647
vn -0.7132 0.0153 0.7008
vn -0.9668 0.0218 0.2548
vn -0.9148 0.3104 -0.2583
vn -0.6702 0.2276 -0.7064
vn -0.2454 0.0834 -0.9658
vn 0.2456 -0.0834 -0.9658
vn 0.6703 -0.2275 -0.7064
vn 0.9148 -0.3105 -0.2582
vn 0.9147 -0.3105 0.2585
vn 0.6704 -0.2277 0.7062
vn 0.2457 -0.0834 0.9658
vn -0.2454 0.0833 0.9658
vn -0.6703 0.2277 0.7062
vn -0.9147 0.3107 0.2584
vn -0.8665 0.4272 -0.2584
vn -0.6347 0.3129 -0.7066
vn -0.2328 0.1148 -0.9657
vn 0.2327 -0.1148 -0.9657
vn 0.6349 -0.3131 -0.7063
vn 0.8665 -0.4269 -0.2585
vn 0.8664 -0.4273 0.2583
vn 0.6349 -0.3131 0.7063
vn 0.2324 -0.1146 0.9658
vn -0.2327 0.1148 0.9657
vn -0.6350 0.3131 0.7062
vn -0.8665 0.4272 0.2584
vn -0.8032 0.5367 -0.2584
vn -0.5884 0.3931 -0.7066
vn -0.2158 0.1442 -0.9657
vn 0.2157 -0.1441 -0.9658
vn 0.5884 -0.3931 -0.7066
vn 0.8032 -0.5367 -0.2585
vn 0.8032 -0.5367 0.2585
vn 0.5887 -0.3933 0.7062
vn 0.2154 -0.1439 0.9659
vn -0.2155 0.1440 0.9658
vn -0.5883 0.3933 0.7065
vn -0.8032 0.5367 0.2584
vn -0.7264 0.6369 -0.2584
vn -0.5322 0.4667 -0.7064
vn -0.1950 0.1710 -0.9658
vn 0.1953 -0.1713 -0.9657
vn 0.5322 -0.4667 -0.7064
vn 0.7260 -0.6373 -0.2584
vn 0.7263 -0.6370 0.2583
vn 0.5321 -0.4668 0.7063
vn 0.1948 -0.1709 0.9658
vn -0.1951 0.1710 0.9658
vn -0.5322 0.4665 0.7065
vn -0.7264 0.6369 0.2584
vn -0.6369 0.7264 -0.2584
vn -0.4668 0.5322 -0.7064
vn -0.1711 0.1950 -0.9658
vn 0.1711 -0.1951 -0.9657
vn 0.4668 -0.5323 -0.7063
vn 0.6374 -0.7261 -0.2579
vn 0.6372 -0.7262 0.2581
vn 0.4666 -0.5322 0.7065
vn 0.1709 -0.1948 0.9658
vn -0.1710 0.1948 0.9658
vn -0.4668 0.5322 0.7063
vn -0.6369 0.7264 0.2584
vn -0.5367 0.8032 -0.2584
vn -0.3933 0.5888 -0.7062
vn -0.1442 0.2157 -0.9658
vn 0.1441 -0.2157 -0.9658
vn 0.3933 -0.5886 -0.7064
vn 0.5367 -0.8033 -0.2583
vn 0.5368 -0.8032 0.2585
vn 0.3934 -0.5885 0.7063
vn 0.1439 -0.2154 0.9659
vn -0.1440 0.2154 0.9658
vn -0.3933 0.5886 0.7063
vn -0.5366 0.8034 0.2582
vn -0.4273 0.8664 -0.2583
vn -0.3128 0.6349 -0.7064
vn -0.1147 0.2330 -0.9657
vn 0.1147 -0.2326 -0.9658
vn 0.3131 -0.6349 -0.7063
vn 0.4273 -0.8664 -0.2583
vn 0.4273 -0.8664 0.2583
vn 0.3131 -0.6349 0.7063
vn 0.1146 -0.2325 0.9658
vn -0.1144 0.2324 0.9659
vn -0.3131 0.6350 0.7062
vn -0.4273 0.8664 0.2583
vn -0.3104 0.9148 -0.2583
vn -0.2275 0.6704 -0.7063
vn -0.0834 0.2456 -0.9658
vn 0.0834 -0.2454 -0.9658
vn 0.2275 -0.6703 -0.7064
vn 0.3105 -0.9148 -0.2583
vn 0.3108 -0.9148 0.2581
vn 0.2275 -0.6704 0.7062
vn 0.0835 -0.2456 0.9658
vn -0.0834 0.2454 0.9658
vn -0.2274 0.6703 0.7064
vn -0.3104 0.9148 0.2583
vn -0.1883 0.9476 -0.2581
vn -0.1381 0.6943 -0.7063
vn -0.0507 0.2548 -0.9657
vn 0.0507 -0.2548 -0.9657
vn 0.1381 -0.6943 -0.7063
vn 0.1885 -0.9475 -0.2583
vn 0.1884 -0.9475 0.2583
vn 0.1381 -0.6944 0.7063
vn 0.0505 -0.2541 0.9659
vn -0.0505 0.2541 0.9658
vn -0.1381 0.6943 0.7063
vn -0.1885 0.9475 0.2583
vn -0.0633 0.9641 -0.2581
vn -0.0463 0.7063 -0.7064
vn -0.0170 0.2589 -0.9658
vn 0.0170 -0.2586 -0.9658
vn 0.0463 -0.7061 -0.7066
vn 0.0634 -0.9640 -0.2584
vn 0.0634 -0.9640 0.2584
vn 0.0463 -0.7065 0.7062
vn 0.0169 -0.2586 0.9658
vn -0.0171 0.2589 0.9657
vn -0.0463 0.7065 0.7062
vn -0.0633 0.9640 0.2581
vn 0.0633 0.9641 -0.2581
vn 0.0463 0.7063 -0.7064
vn 0.0170 0.2589 -0.9658
vn -0.0170 -0.2586 -0.9658
vn -0.0463 -0.7061 -0.7066
vn -0.0634 -0.9640 -0.2584
vn -0.0634 -0.9640 0.2584
vn -0.0463 -0.7065 0.7062
vn -0.0169 -0.2586 0.9658
vn 0.0171 0.2589 0.9657
vn 0.0463 0.7065 0.7062
vn 0.0633 0.9640 0.2581
vn 0.1883 0.9476 -0.2581
vn 0.1381 0.6943 -0.7063
vn 0.0507 0.2548 -0.9657
vn -0.0507 -0.2548 -0.9657
vn -0.1381 -0.6943 -0.7063
vn -0.1885 -0.9475 -0.2583
vn -0.1880 -0.9477 0.2581
vn -0.1381 -0.6944 0.7063
vn -0.0505 -0.2541 0.9659
vn 0.0505 0.2541 0.9658
vn 0.1381 0.6943 0.7063
vn 0.1885 0.9475 0.2583
vn 0.3107 0.9147 -0.2584
vn 0.2275 0.6704 -0.7063
vn 0.0834 0.2454 -0.9658
vn -0.0834 -0.2455 -0.9658
vn -0.2273 -0.6701 -0.7066
vn -0.3105 -0.9148 -0.2583
vn -0.3108 -0.9148 0.2581
vn -0.2275 -0.6704 0.7062
vn -0.0835 -0.2456 0.9658
vn 0.0834 0.2454 0.9658
vn 0.2277 0.6703 0.7062
vn 0.3107 0.9147 0.2584
vn 0.4273 0.8664 -0.2582
vn 0.3128 0.6349 -0.7064
vn 0.1147 0.2327 -0.9658
vn -0.1147 -0.2326 -0.9658
vn -0.3131 -0.6349 -0.7063
vn -0.4273 -0.8664 -0.2583
vn -0.4273 -0.8664 0.2583
vn -0.3131 -0.6349 0.7063
vn -0.1146 -0.2325 0.9658
vn 0.1144 0.2324 0.9659
vn 0.3131 0.6349 0.7063
vn 0.4273 0.8664 0.2582
vn 0.5367 0.8032 -0.2584
vn 0.3934 0.5884 -0.7064
vn 0.1442 0.2157 -0.9658
vn -0.1441 -0.2157 -0.9658
vn -0.3933 -0.5887 -0.7062
vn -0.5368 -0.8032 -0.2585
vn -0.5368 -0.8032 0.2584
vn -0.3934 -0.5885 0.7063
vn -0.1439 -0.2154 0.9659
vn 0.1440 0.2154 0.9658
vn 0.3936 0.5887 0.7061
vn 0.5366 0.8034 0.2582
vn 0.6369 0.7264 -0.2584
vn 0.4667 0.5323 -0.7063
vn 0.1712 0.1951 -0.9657
vn -0.1711 -0.1951 -0.9657
vn -0.4667 -0.5322 -0.7064
vn -0.6372 -0.7262 -0.2581
vn -0.6371 -0.7263 0.2582
vn -0.4666 -0.5322 0.7065
vn -0.1709 -0.1948 0.9658
vn 0.1710 0.1948 0.9658
vn 0.4668 0.5322 0.7063
vn 0.6369 0.7264 0.2584
vn 0.7264 0.6369 -0.2584
vn 0.5322 0.4667 -0.7064
vn 0.1951 0.1712 -0.9657
vn -0.1951 -0.1711 -0.9657
vn -0.5322 -0.4667 -0.7064
vn -0.7260 -0.6373 -0.2584
vn -0.7263 -0.6370 0.2583
vn -0.5321 -0.4668 0.7063
vn -0.1948 -0.1709 0.9658
vn 0.1948 0.1710 0.9658
vn 0.5322 0.4668 0.7063
vn 0.7264 0.6369 0.2584
vn 0.8032 0.5367 -0.2584
vn 0.5884 0.3934 -0.7064
vn 0.2160 0.1444 -0.9657
vn -0.2160 -0.1443 -0.9657
vn -0.5884 -0.3931 -0.7066
vn -0.8032 -0.5367 -0.2585
vn -0.8032 -0.5367 0.2585
vn -0.5887 -0.3933 0.7062
vn -0.2154 -0.1439 0.9659
vn 0.2154 0.1440 0.9658
vn 0.5887 0.3936 0.7061
vn 0.8032 0.5367 0.2584
vn 0.8665 0.4272 -0.2584
vn 0.6349 0.3128 -0.7064
vn 0.2330 0.1148 -0.9657
vn -0.2327 -0.1148 -0.9657
vn -0.6349 -0.3131 -0.7063
vn -0.8664 -0.4273 -0.2583
vn -0.8664 -0.4273 0.2583
vn -0.6349 -0.3131 0.7063
vn -0.2324 -0.1146 0.9658
vn 0.2324 0.1145 0.9659
vn 0.6350 0.3131 0.7062
vn 0.8665 0.4272 0.2584
vn 0.9148 0.3104 -0.2583
vn 0.6704 0.2275 -0.7063
vn 0.2454 0.0834 -0.9658
vn -0.2455 -0.0833 -0.9658
vn -0.6700 -0.2275 -0.7066
vn -0.9148 -0.3105 -0.2582
vn -0.9147 -0.3105 0.2585
vn -0.6704 -0.2277 0.7062
vn -0.2457 -0.0833 0.9658
vn 0.2457 0.0835 0.9657
vn 0.6703 0.2277 0.7062
vn 0.9147 0.3107 0.2584
vn 0.9668 0.0218 -0.2548
vn 0.7131 0.0153 -0.7009
vn 0.2631 0.0052 -0.9648
vn 0.2594 0.0169 -0.9656
vn 0.2635 0.0058 -0.9646
vn -0.2637 -0.0046 -0.9646
vn -0.2595 -0.0169 -0.9656
vn -0.2636 -0.0052 -0.9646
vn -0.7133 -0.0112 -0.7008
vn -0.9671 -0.0141 -0.2540
vn -0.9671 -0.0141 0.2542
vn -0.7136 -0.0112 0.7004
vn -0.2630 -0.0046 0.9648
vn -0.2637 -0.0052 0.9646
vn -0.2595 -0.0168 0.9656
vn 0.2632 0.0052 0.9647
vn 0.2636 0.0058 0.9646
vn 0.2595 0.0169 0.9656
vn 0.7132 0.0153 0.7008
vn 0.9668 0.0218 0.2548
vn 0.9640 0.0632 -0.2583
vn 0.7064 0.0463 -0.7063
vn 0.2589 0.0170 -0.9658
vn -0.2588 -0.0170 -0.9658
vn -0.7061 -0.0463 -0.7066
vn -0.9640 -0.0634 -0.2584
vn -0.9640 -0.0634 0.2584
vn -0.7065 -0.0463 0.7062
vn -0.2586 -0.0169 0.9658
vn 0.2588 0.0170 0.9658
vn 0.7065 0.0463 0.7062
vn 0.9641 0.0634 0.2581
vn 0.9641 -0.0633 -0.2581
vn 0.7061 -0.0462 -0.7066
vn 0.2587 -0.0170 -0.9658
vn -0.2587 0.0170 -0.9658
vn -0.7061 0.0463 -0.7066
vn -0.9640 0.0630 -0.2583
vn -0.9640 0.0634 0.2584
vn -0.2586 0.0169 0.9658
vn 0.2585 -0.0169 0.9659
vn 0.9641 -0.0633 0.2581
vn 0.9476 -0.1883 -0.2581
vn 0.6943 -0.1381 -0.7063
vn 0.2545 -0.0506 -0.9658
vn -0.2548 0.0507 -0.9657
vn -0.6943 0.1381 -0.7063
vn -0.9475 0.1882 -0.2584
vn -0.9475 0.1882 0.2584
vn -0.6943 0.1380 0.7063
vn -0.2541 0.0506 0.9658
vn 0.2541 -0.0506 0.9658
vn 0.6943 -0.1382 0.7063
vn 0.9476 -0.1883 0.2581
vn 0.6701 -0.2276 -0.7065
vn 0.2455 -0.0833 -0.9658
vn -0.2456 0.0833 -0.9658
vn -0.6704 0.2275 -0.7063
vn -0.9147 0.3106 -0.2584
vn -0.9149 0.3104 0.2582
vn -0.6704 0.2277 0.7062
vn 0.2454 -0.0833 0.9658
vn 0.9148 -0.3105 0.2582
vn 0.8665 -0.4272 -0.2584
vn 0.6349 -0.3128 -0.7064
vn 0.2330 -0.1148 -0.9657
vn -0.2325 0.1147 -0.9658
vn -0.6349 0.3131 -0.7063
vn -0.8664 0.4273 -0.2583
vn -0.8664 0.4273 0.2583
vn -0.6349 0.3131 0.7063
vn -0.2324 0.1146 0.9658
vn 0.2326 -0.1147 0.9658
vn 0.8665 -0.4272 0.2584
vn 0.8032 -0.5369 -0.2582
vn 0.5887 -0.3933 -0.7062
vn 0.2160 -0.1443 -0.9657
vn -0.2160 0.1443 -0.9657
vn -0.8032 0.5367 -0.2585
vn -0.8032 0.5367 0.2585
vn -0.5887 0.3933 0.7062
vn -0.2154 0.1439 0.9659
vn 0.5887 -0.3936 0.7061
vn 0.8032 -0.5369 0.2582
vn 0.7264 -0.6369 -0.2584
vn 0.5321 -0.4667 -0.7065
vn 0.1950 -0.1710 -0.9658
vn -0.5321 0.4665 -0.7066
vn -0.7264 0.6368 -0.2584
vn -0.7264 0.6368 0.2584
vn -0.5321 0.4667 0.7064
vn -0.1948 0.1709 0.9658
vn 0.1947 -0.1709 0.9659
vn 0.5322 -0.4667 0.7063
vn 0.7264 -0.6369 0.2584
vn 0.6369 -0.7264 -0.2584
vn 0.4668 -0.5323 -0.7062
vn 0.1709 -0.1948 -0.9658
vn -0.1711 0.1951 -0.9657
vn -0.4665 0.5321 -0.7066
vn -0.6371 0.7263 -0.2582
vn -0.6371 0.7263 0.2582
vn -0.4668 0.5324 0.7062
vn -0.1709 0.1948 0.9658
vn 0.4668 -0.5324 0.7062
vn 0.6369 -0.7264 0.2584
vn 0.5367 -0.8033 -0.2582
vn 0.3933 -0.5887 -0.7062
vn 0.1442 -0.2157 -0.9658
vn -0.1441 0.2157 -0.9658
vn -0.3934 0.5886 -0.7062
vn -0.5366 0.8034 0.2580
vn -0.3932 0.5888 0.7062
vn -0.1439 0.2154 0.9659
vn 0.1440 -0.2154 0.9658
vn 0.3932 -0.5886 0.7064
vn 0.5367 -0.8033 0.2582
vn 0.1147 -0.2327 -0.9657
vn -0.1147 0.2326 -0.9658
vn -0.3131 0.6349 -0.7063
vn -0.3135 0.6349 0.7061
vn -0.1146 0.2323 0.9659
vn 0.1146 -0.2324 0.9658
vn 0.3131 -0.6350 0.7062
vn 0.3105 -0.9149 -0.2581
vn 0.2276 -0.6700 -0.7066
vn 0.0833 -0.2455 -0.9658
vn -0.0834 0.2455 -0.9658
vn -0.2276 0.6703 -0.7063
vn -0.3104 0.9148 -0.2584
vn -0.3104 0.9148 0.2584
vn -0.2275 0.6704 0.7063
vn -0.0834 0.2455 0.9658
vn 0.0834 -0.2454 0.9658
vn 0.2274 -0.6703 0.7064
vn 0.3105 -0.9149 0.2581
vn 0.1885 -0.9474 -0.2585
vn 0.1382 -0.6943 -0.7063
vn 0.0506 -0.2547 -0.9657
vn -0.1380 0.6944 -0.7062
vn -0.1884 0.9475 -0.2584
vn -0.1884 0.9475 0.2584
vn -0.0505 0.2541 0.9659
vn 0.0504 -0.2541 0.9659
vn 0.1381 -0.6942 0.7064
vn 0.1885 -0.9475 0.2582
vn 0.0630 -0.9640 -0.2584
vn 0.0170 -0.2589 -0.9658
vn -0.0170 0.2588 -0.9658
vn -0.0463 0.7061 -0.7066
vn -0.0634 0.9640 -0.2584
vn -0.0631 0.9640 0.2582
vn -0.0170 0.2587 0.9658
vn 0.0169 -0.2585 0.9659
vn 0.0463 -0.7061 0.7066
vn 0.0630 -0.9640 0.2584
vn -0.0630 -0.9640 -0.2584
vn -0.0170 -0.2589 -0.9658
vn 0.0170 0.2588 -0.9658
vn 0.0463 0.7061 -0.7066
vn 0.0634 0.9640 -0.2584
vn 0.0634 0.9640 0.2584
vn 0.0170 0.2587 0.9658
vn -0.0170 -0.2589 0.9657
vn -0.0463 -0.7061 0.7066
vn -0.0630 -0.9640 0.2584
vn -0.1885 -0.9474 -0.2585
vn -0.1379 -0.6942 -0.7064
vn -0.0506 -0.2547 -0.9657
vn 0.1380 0.6944 -0.7062
vn 0.1884 0.9475 -0.2584
vn 0.1884 0.9475 0.2584
vn 0.0505 0.2541 0.9659
vn -0.0504 -0.2541 0.9659
vn -0.1381 -0.6942 0.7064
vn -0.1885 -0.9475 0.2582
vn -0.3105 -0.9149 -0.2581
vn -0.2275 -0.6703 -0.7064
vn -0.0833 -0.2454 -0.9658
vn 0.0834 0.2455 -0.9658
vn 0.2276 0.6703 -0.7063
vn 0.3104 0.9148 -0.2584
vn 0.3104 0.9148 0.2584
vn 0.2275 0.6704 0.7063
vn 0.0832 0.2453 0.9659
vn -0.0832 -0.2458 0.9657
vn -0.2274 -0.6703 0.7064
vn -0.3105 -0.9147 0.2585
vn -0.3129 -0.6347 -0.7066
vn 0.1147 0.2326 -0.9658
vn 0.3131 0.6349 -0.7063
vn 0.4273 0.8664 -0.2583
vn 0.4273 0.8664 0.2583
vn 0.3135 0.6349 0.7061
vn 0.1146 0.2323 0.9659
vn -0.1146 -0.2324 0.9658
vn -0.3131 -0.6350 0.7062
vn -0.5367 -0.8033 -0.2582
vn -0.3933 -0.5888 -0.7062
vn -0.1442 -0.2157 -0.9658
vn 0.1443 0.2160 -0.9657
vn 0.3934 0.5886 -0.7062
vn 0.5367 0.8033 -0.2583
vn 0.5367 0.8033 0.2583
vn 0.3933 0.5885 0.7064
vn 0.1441 0.2156 0.9658
vn -0.1440 -0.2154 0.9658
vn -0.3932 -0.5886 0.7064
vn -0.5366 -0.8033 0.2582
vn -0.6371 -0.7262 -0.2584
vn -0.4665 -0.5321 -0.7066
vn 0.1711 0.1951 -0.9657
vn 0.4665 0.5321 -0.7066
vn 0.6371 0.7263 -0.2582
vn 0.6371 0.7263 0.2582
vn 0.4668 0.5324 0.7062
vn 0.1709 0.1948 0.9658
vn -0.1711 -0.1950 0.9658
vn -0.4668 -0.5324 0.7062
vn -0.6369 -0.7264 0.2584
vn -0.7264 -0.6369 -0.2584
vn -0.5321 -0.4667 -0.7065
vn -0.1950 -0.1711 -0.9658
vn 0.1951 0.1711 -0.9657
vn 0.5321 0.4665 -0.7066
vn 0.7264 0.6368 -0.2584
vn 0.7264 0.6368 0.2584
vn 0.5321 0.4667 0.7064
vn 0.1951 0.1713 0.9657
vn -0.1947 -0.1709 0.9659
vn -0.5324 -0.4669 0.7061
vn -0.7264 -0.6369 0.2584
vn -0.8032 -0.5369 -0.2582
vn -0.2161 -0.1443 -0.9657
vn 0.2160 0.1443 -0.9657
vn 0.5884 0.3931 -0.7066
vn 0.8032 0.5367 -0.2585
vn 0.8032 0.5367 0.2585
vn 0.5887 0.3933 0.7062
vn 0.2154 0.1439 0.9659
vn -0.2155 -0.1439 0.9658
vn -0.8033 -0.5366 0.2584
vn -0.8665 -0.4272 -0.2584
vn -0.6349 -0.3131 -0.7064
vn -0.2326 -0.1147 -0.9658
vn 0.2327 0.1148 -0.9657
vn 0.6349 0.3131 -0.7063
vn 0.8664 0.4273 -0.2583
vn 0.8664 0.4273 0.2583
vn 0.6349 0.3131 0.7063
vn 0.2324 0.1146 0.9658
vn -0.6348 -0.3132 0.7064
vn -0.8665 -0.4272 0.2584
vn -0.6701 -0.2276 -0.7065
vn -0.2454 -0.0834 -0.9658
vn 0.2456 0.0834 -0.9658
vn 0.9147 0.3106 -0.2584
vn 0.9149 0.3104 0.2582
vn 0.6704 0.2277 0.7062
vn 0.2454 0.0833 0.9658
vn -0.2454 -0.0833 0.9658
vn -0.9148 -0.3105 0.2582
vn -0.9476 -0.1883 -0.2581
vn -0.6943 -0.1381 -0.7063
vn -0.2545 -0.0506 -0.9658
vn 0.2545 0.0506 -0.9657
vn 0.6943 0.1381 -0.7063
vn 0.9475 0.1882 -0.2584
vn 0.9475 0.1886 0.2583
vn 0.6943 0.1380 0.7063
vn 0.2541 0.0506 0.9658
vn -0.2541 -0.0506 0.9658
vn -0.6943 -0.1382 0.7063
vn -0.9476 -0.1883 0.2581
vn -0.9641 -0.0633 -0.2581
vn -0.7061 -0.0462 -0.7066
vn -0.2587 -0.0170 -0.9658
vn 0.2587 0.0170 -0.9658
vn 0.7061 0.0463 -0.7066
vn 0.9640 0.0630 -0.2583
vn 0.9640 0.0634 0.2584
vn 0.2586 0.0169 0.9658
vn -0.2585 -0.0169 0.9659
vn -0.9641 -0.0633 0.2581
vn -0.0000 -1.0000 -0.0000
vn -0.4714 -0.0000 -0.8819
vn -0.0000 1.0000 -0.0000
vn -0.9570 -0.0000 -0.2902
vn -0.8819 -0.0000 0.4714
vn -0.2903 -0.0000 0.9569
vn 0.4714 -0.0000 0.8819
vn 0.9570 -0.0000 0.2902
vn 0.8819 -0.0000 -0.4714
vn 0.2902 -0.0000 -0.9570
vn -0.2902 -0.0000 -0.9570
vn -0.8819 -0.0000 -0.4714
vn -0.9570 -0.0000 0.2902
vn -0.4714 -0.0000 0.8819
vn 0.2903 -0.0000 0.9569
vn 0.8819 -0.0000 0.4714
vn 0.9570 -0.0000 -0.2902
vn 0.4714 -0.0000 -0.8819
vn -0.0981 -0.0000 -0.9952
vn -0.7730 -0.0000 -0.6344
vn -0.9952 -0.0000 0.0981
vn -0.6344 -0.0000 0.7730
vn 0.6344 -0.0000 -0.7730
vn 0.0980 -0.0000 0.9952
vn 0.7730 -0.0000 0.6344
vn 0.9952 -0.0000 -0.0981
vn -0.6344 -0.0000 -0.7730
vn -0.9952 -0.0000 -0.0981
vn -0.7730 -0.0000 0.6344
vn -0.0980 -0.0000 0.9952
vn 0.9952 -0.0000 0.0981
vn 0.7730 -0.0000 -0.6345
vn 0.0981 -0.0000 -0.9952
vn 0.6344 -0.0000 0.7730
vt 0.373077 0.480554
vt 0.373154 0.497404
vt 0.360966 0.496854
vt 0.360891 0.480456
vt 0.956750 0.112203
vt 0.956119 0.128523
vt 0.946220 0.126504
vt 0.946803 0.111412
vt 0.933297 0.124860
vt 0.933816 0.111444
vt 0.920813 0.124029
vt 0.921267 0.112291
vt 0.477191 0.921521
vt 0.477299 0.909736
vt 0.487880 0.911118
vt 0.487784 0.921670
vt 0.501030 0.911599
vt 0.500937 0.921700
vt 0.513224 0.911050
vt 0.513128 0.921602
vt 0.681493 0.614605
vt 0.681070 0.604095
vt 0.690966 0.602061
vt 0.691438 0.613799
vt 0.703886 0.600395
vt 0.704426 0.613810
vt 0.716369 0.599544
vt 0.716976 0.614635
vt 0.396830 0.480590
vt 0.396899 0.495755
vt 0.386307 0.497001
vt 0.386232 0.480603
vt 0.372950 0.642030
vt 0.360751 0.641037
vt 0.956750 0.271757
vt 0.947057 0.268527
vt 0.934417 0.265226
vt 0.922215 0.262740
vt 0.477620 0.770118
vt 0.488167 0.772708
vt 0.501305 0.773631
vt 0.513512 0.772641
vt 0.682456 0.466591
vt 0.692143 0.463346
vt 0.704778 0.460025
vt 0.716976 0.457518
vt 0.396657 0.638726
vt 0.386093 0.641184
vt 0.373636 0.657989
vt 0.361419 0.656568
vt 0.951936 0.287389
vt 0.942605 0.282983
vt 0.930459 0.278076
vt 0.918752 0.273984
vt 0.478149 0.758991
vt 0.488641 0.762745
vt 0.501758 0.764094
vt 0.513985 0.762678
vt 0.679339 0.456529
vt 0.688662 0.452108
vt 0.700800 0.447181
vt 0.712501 0.443069
vt 0.397274 0.653090
vt 0.386760 0.656715
vt 0.374612 0.673088
vt 0.362368 0.671263
vt 0.945135 0.302272
vt 0.936316 0.296746
vt 0.924869 0.290310
vt 0.913861 0.284688
vt 0.478877 0.748483
vt 0.489293 0.753335
vt 0.502382 0.755087
vt 0.514637 0.753268
vt 0.674944 0.446951
vt 0.683754 0.441411
vt 0.695190 0.434957
vt 0.706190 0.429316
vt 0.398152 0.666679
vt 0.387709 0.671410
vt 0.375860 0.687068
vt 0.363583 0.684869
vt 0.936466 0.316150
vt 0.928299 0.309581
vt 0.917742 0.301718
vt 0.907625 0.294671
vt 0.479791 0.738772
vt 0.490112 0.744640
vt 0.503166 0.746763
vt 0.515456 0.744573
vt 0.669345 0.438021
vt 0.677501 0.431439
vt 0.688045 0.423560
vt 0.698151 0.416495
vt 0.399276 0.679261
vt 0.388924 0.685016
vt 0.377360 0.699691
vt 0.365042 0.697153
vt 0.926074 0.328788
vt 0.918689 0.321267
vt 0.909200 0.312107
vt 0.900151 0.303761
vt 0.767932 1.000000
vt 0.765484 0.991889
vt 0.776516 0.985534
vt 0.778708 0.992797
vt 0.491083 0.736808
vt 0.504096 0.739266
vt 0.516428 0.736741
vt 0.662640 0.429893
vt 0.670013 0.422361
vt 0.679487 0.413186
vt 0.688523 0.404824
vt 0.564113 0.743944
vt 0.560966 0.754373
vt 0.549934 0.748018
vt 0.553337 0.736741
vt 0.390384 0.697300
vt 0.536945 0.745778
vt 0.533935 0.758871
vt 0.522549 0.760996
vt 0.525478 0.748254
vt 0.914140 0.339968
vt 0.907652 0.331606
vt 0.899390 0.321297
vt 0.891566 0.311802
vt 0.763377 0.982724
vt 0.774630 0.977327
vt 0.787700 0.975439
vt 0.789506 0.983294
vt 0.799085 0.977563
vt 0.800972 0.985770
vt 0.654941 0.422705
vt 0.661415 0.414334
vt 0.669661 0.404012
vt 0.677469 0.394503
vt 0.558257 0.766156
vt 0.547005 0.760760
vt 0.531462 0.773246
vt 0.520143 0.774985
vt 0.900866 0.349498
vt 0.895377 0.340420
vt 0.888478 0.329131
vt 0.882019 0.318657
vt 0.761646 0.972662
vt 0.773080 0.968318
vt 0.786216 0.966814
vt 0.797536 0.968554
vt 0.646382 0.416581
vt 0.651857 0.407495
vt 0.658737 0.396195
vt 0.665179 0.385709
vt 0.556032 0.779093
vt 0.544599 0.774749
vt 0.529570 0.788656
vt 0.518301 0.789982
vt 0.886480 0.357217
vt 0.882073 0.347558
vt 0.876653 0.335476
vt 0.871671 0.324209
vt 0.760322 0.961875
vt 0.771894 0.958659
vt 0.785081 0.957568
vt 0.796350 0.958895
vt 0.637109 0.411625
vt 0.641500 0.401960
vt 0.646901 0.389869
vt 0.651864 0.378593
vt 0.554329 0.792962
vt 0.542757 0.789746
vt 0.528290 0.804838
vt 0.517056 0.805731
vt 0.871228 0.362992
vt 0.867968 0.352899
vt 0.864115 0.340223
vt 0.860701 0.328363
vt 0.759426 0.950547
vt 0.771092 0.948516
vt 0.784313 0.947859
vt 0.795548 0.948752
vt 0.627280 0.407922
vt 0.630523 0.397824
vt 0.634356 0.385143
vt 0.637750 0.373276
vt 0.553177 0.807526
vt 0.541512 0.805495
vt 0.527645 0.821514
vt 0.516428 0.821961
vt 0.855370 0.366724
vt 0.853303 0.356350
vt 0.851080 0.343291
vt 0.849295 0.331047
vt 0.758974 0.938874
vt 0.770687 0.938063
vt 0.783926 0.937853
vt 0.795143 0.938299
vt 0.617063 0.405535
vt 0.619113 0.395159
vt 0.621316 0.382097
vt 0.623080 0.369849
vt 0.552597 0.822535
vt 0.540884 0.821725
vt 0.527645 0.838401
vt 0.516428 0.838395
vt 0.839179 0.368349
vt 0.838331 0.357853
vt 0.837771 0.344627
vt 0.837650 0.332216
vt 0.758974 0.927053
vt 0.770687 0.927479
vt 0.783926 0.927721
vt 0.795143 0.927715
vt 0.606634 0.404506
vt 0.607466 0.394009
vt 0.608004 0.380783
vt 0.608105 0.368370
vt 0.552597 0.837733
vt 0.540884 0.838159
vt 0.528290 0.855208
vt 0.517056 0.854752
vt 0.822932 0.367840
vt 0.823305 0.357382
vt 0.824415 0.344209
vt 0.825963 0.331850
vt 0.759426 0.915288
vt 0.771092 0.916944
vt 0.784313 0.917636
vt 0.795548 0.917180
vt 0.596170 0.404851
vt 0.595780 0.394394
vt 0.594649 0.381223
vt 0.593080 0.368866
vt 0.553177 0.852860
vt 0.541512 0.854515
vt 0.529570 0.871648
vt 0.518301 0.870751
vt 0.806906 0.365205
vt 0.808484 0.354945
vt 0.811241 0.342043
vt 0.814436 0.329955
vt 0.760322 0.903780
vt 0.771894 0.906639
vt 0.785081 0.907772
vt 0.796350 0.906875
vt 0.585851 0.406565
vt 0.584255 0.396309
vt 0.581478 0.383411
vt 0.578264 0.371328
vt 0.554329 0.867656
vt 0.542757 0.870515
vt 0.531462 0.887441
vt 0.520143 0.886120
vt 0.791375 0.360489
vt 0.794122 0.350584
vt 0.798474 0.338166
vt 0.803265 0.326563
vt 0.761646 0.892725
vt 0.773080 0.896741
vt 0.786216 0.898297
vt 0.797536 0.896977
vt 0.575853 0.409619
vt 0.573090 0.399719
vt 0.568718 0.387309
vt 0.563908 0.375712
vt 0.556032 0.881869
vt 0.544599 0.885884
vt 0.533935 0.902314
vt 0.522549 0.900596
vt 0.776605 0.353774
vt 0.780463 0.344374
vt 0.786333 0.332646
vt 0.792642 0.321732
vt 0.763377 0.882314
vt 0.774629 0.887418
vt 0.787700 0.889373
vt 0.799085 0.887654
vt 0.566348 0.413960
vt 0.562475 0.404567
vt 0.556586 0.392849
vt 0.550260 0.381946
vt 0.558257 0.895255
vt 0.547005 0.900360
vt 0.536945 0.916015
vt 0.525478 0.913929
vt 0.762850 0.345173
vt 0.767742 0.336420
vt 0.775025 0.325576
vt 0.782748 0.315546
vt 0.765484 0.872723
vt 0.776516 0.878830
vt 0.789506 0.881152
vt 0.800972 0.879066
vt 0.557497 0.419514
vt 0.552591 0.410770
vt 0.545290 0.399938
vt 0.537552 0.389921
vt 0.560966 0.907586
vt 0.549934 0.913693
vt 0.419557 0.699781
vt 0.417738 0.688419
vt 0.430739 0.685923
vt 0.432510 0.696981
vt 0.750343 0.334834
vt 0.756177 0.326859
vt 0.764745 0.317077
vt 0.773752 0.308110
vt 0.767932 0.864117
vt 0.778708 0.871125
vt 0.791604 0.873776
vt 0.273795 0.701286
vt 0.272729 0.708028
vt 0.259716 0.705586
vt 0.260829 0.698542
vt 0.549453 0.426186
vt 0.543607 0.418222
vt 0.535023 0.408454
vt 0.526001 0.399501
vt 0.564113 0.918650
vt 0.553337 0.925658
vt 0.540441 0.928309
vt 0.416128 0.675521
vt 0.429173 0.673371
vt 0.739300 0.322934
vt 0.745965 0.315854
vt 0.755667 0.307295
vt 0.765809 0.299550
vt 0.773673 0.294695
vt 0.780785 0.302359
vt 0.285058 0.705614
vt 0.284081 0.713629
vt 0.271794 0.715700
vt 0.258740 0.713601
vt 0.542354 0.433862
vt 0.535678 0.426794
vt 0.525961 0.418251
vt 0.515807 0.410523
vt 0.507936 0.405679
vt 0.518960 0.393761
vt 0.405395 0.686108
vt 0.403829 0.673557
vt 0.414757 0.661310
vt 0.427838 0.659541
vt 0.729910 0.309677
vt 0.737280 0.303594
vt 0.747948 0.296397
vt 0.759055 0.290015
vt 0.767625 0.286157
vt 0.283259 0.722479
vt 0.271007 0.724172
vt 0.257917 0.722450
vt 0.536319 0.442411
vt 0.528939 0.436341
vt 0.518260 0.429162
vt 0.507143 0.422797
vt 0.498567 0.418952
vt 0.402495 0.659726
vt 0.413647 0.646028
vt 0.426758 0.644668
vt 0.437234 0.641137
vt 0.438233 0.654891
vt 0.730273 0.290288
vt 0.741719 0.284570
vt 0.753604 0.279666
vt 0.762744 0.276890
vt 0.282604 0.732012
vt 0.270380 0.733298
vt 0.257262 0.731984
vt 0.246765 0.728422
vt 0.247496 0.717776
vt 0.523505 0.446699
vt 0.512050 0.441000
vt 0.500156 0.436115
vt 0.491012 0.433353
vt 0.401414 0.644854
vt 0.412818 0.629937
vt 0.425951 0.629008
vt 0.436488 0.626655
vt 0.725061 0.276165
vt 0.737087 0.272016
vt 0.749551 0.268681
vt 0.759115 0.267054
vt 0.282128 0.742065
vt 0.269924 0.742921
vt 0.256786 0.742037
vt 0.246233 0.739650
vt 0.519470 0.457691
vt 0.507438 0.453562
vt 0.494968 0.450247
vt 0.485402 0.448635
vt 0.400607 0.629193
vt 0.411696 0.485250
vt 0.424844 0.484766
vt 0.435420 0.483631
vt 0.718359 0.134345
vt 0.730754 0.131828
vt 0.743588 0.130127
vt 0.753422 0.129696
vt 0.281839 0.880548
vt 0.269648 0.880960
vt 0.256497 0.880520
vt 0.245911 0.879348
vt 0.513731 0.596256
vt 0.501332 0.593762
vt 0.488495 0.592081
vt 0.478660 0.591665
vt 0.399500 0.484952
vt 0.411465 0.468375
vt 0.424619 0.468343
vt 0.435212 0.468443
vt 0.716976 0.119320
vt 0.729525 0.118473
vt 0.742513 0.118441
vt 0.752459 0.119232
vt 0.281742 0.891120
vt 0.269555 0.891079
vt 0.256400 0.891092
vt 0.245802 0.891154
vt 0.512674 0.607944
vt 0.500124 0.607119
vt 0.487136 0.607108
vt 0.477191 0.607914
vt 0.399276 0.468529
vt 0.411542 0.451539
vt 0.424694 0.451959
vt 0.435281 0.453291
vt 0.717559 0.104228
vt 0.730043 0.105058
vt 0.742966 0.106703
vt 0.752865 0.108722
vt 0.281839 0.901681
vt 0.269648 0.901189
vt 0.256497 0.901653
vt 0.245911 0.902949
vt 0.513147 0.619682
vt 0.500664 0.620533
vt 0.487744 0.622199
vt 0.477848 0.624233
vt 0.399350 0.452144
vt 0.411925 0.435031
vt 0.425067 0.435893
vt 0.435626 0.438433
vt 0.720099 0.089326
vt 0.732300 0.091812
vt 0.744941 0.095113
vt 0.754634 0.098343
vt 0.282128 0.912051
vt 0.269924 0.911115
vt 0.256786 0.912023
vt 0.246233 0.914530
vt 0.515140 0.631269
vt 0.502943 0.633776
vt 0.490307 0.637097
vt 0.480620 0.640342
vt 0.399723 0.436078
vt 0.412608 0.419132
vt 0.425731 0.420420
vt 0.436241 0.424125
vt 0.724551 0.074870
vt 0.736258 0.078962
vt 0.748404 0.083869
vt 0.757734 0.088276
vt 0.282604 0.922052
vt 0.270380 0.920689
vt 0.257262 0.922024
vt 0.246765 0.925699
vt 0.518621 0.642507
vt 0.506921 0.646619
vt 0.494783 0.651545
vt 0.485459 0.655966
vt 0.400388 0.420605
vt 0.413579 0.404115
vt 0.426677 0.405805
vt 0.437115 0.410609
vt 0.730839 0.061107
vt 0.741848 0.066729
vt 0.753295 0.073165
vt 0.762114 0.078691
vt 0.283259 0.931513
vt 0.271007 0.929745
vt 0.257917 0.931485
vt 0.247496 0.936265
vt 0.523530 0.653203
vt 0.512531 0.658844
vt 0.501094 0.665298
vt 0.492284 0.670838
vt 0.401333 0.405991
vt 0.414822 0.390237
vt 0.427886 0.392299
vt 0.438233 0.398119
vt 0.738857 0.048272
vt 0.748975 0.055320
vt 0.759531 0.063182
vt 0.767698 0.069752
vt 0.284081 0.940272
vt 0.271794 0.938130
vt 0.258740 0.940244
vt 0.248415 0.946047
vt 0.529782 0.663176
vt 0.519676 0.670241
vt 0.509132 0.678120
vt 0.500976 0.684702
vt 0.402542 0.392484
vt 0.416315 0.377734
vt 0.429339 0.380132
vt 0.696394 0.928309
vt 0.692991 0.917032
vt 0.704024 0.910677
vt 0.707170 0.921106
vt 0.748467 0.036586
vt 0.757517 0.044932
vt 0.767005 0.054093
vt 0.774390 0.061613
vt 0.285058 0.948180
vt 0.272729 0.945700
vt 0.259716 0.948151
vt 0.820706 0.871320
vt 0.818514 0.878583
vt 0.807482 0.872229
vt 0.809930 0.864117
vt 0.537271 0.672253
vt 0.528235 0.680615
vt 0.518761 0.689791
vt 0.511388 0.697322
vt 0.403995 0.380317
vt 0.680002 0.919271
vt 0.676992 0.906179
vt 0.690062 0.904290
vt 0.701314 0.898893
vt 0.759504 0.026247
vt 0.767327 0.035742
vt 0.775589 0.046051
vt 0.782077 0.054413
vt 0.842970 0.878347
vt 0.841084 0.886554
vt 0.829698 0.888679
vt 0.831504 0.880823
vt 0.816628 0.886790
vt 0.805375 0.881394
vt 0.545868 0.680280
vt 0.538060 0.689789
vt 0.529814 0.700112
vt 0.523340 0.708483
vt 0.668536 0.916796
vt 0.665606 0.904054
vt 0.674519 0.891804
vt 0.687656 0.890300
vt 0.699089 0.885956
vt 0.771779 0.017433
vt 0.778239 0.027907
vt 0.785137 0.039196
vt 0.790626 0.048274
vt 0.839534 0.895564
vt 0.828214 0.897303
vt 0.815078 0.895800
vt 0.803644 0.891456
vt 0.555427 0.687120
vt 0.548984 0.697606
vt 0.542104 0.708905
vt 0.536630 0.717992
vt 0.663200 0.890064
vt 0.672627 0.876394
vt 0.685814 0.875303
vt 0.697386 0.872087
vt 0.785083 0.010295
vt 0.790064 0.021562
vt 0.795485 0.033644
vt 0.799892 0.043303
vt 0.838348 0.905223
vt 0.827079 0.906549
vt 0.813892 0.905459
vt 0.802320 0.902243
vt 0.565783 0.692655
vt 0.560820 0.703931
vt 0.555420 0.716022
vt 0.551028 0.725687
vt 0.661358 0.875067
vt 0.671347 0.860212
vt 0.684569 0.859555
vt 0.696234 0.857524
vt 0.799188 0.004954
vt 0.802602 0.016815
vt 0.806455 0.029490
vt 0.809715 0.039584
vt 0.837546 0.915365
vt 0.826311 0.916259
vt 0.813090 0.915601
vt 0.801424 0.913570
vt 0.576760 0.696791
vt 0.573366 0.708658
vt 0.569533 0.721339
vt 0.566290 0.731437
vt 0.660113 0.859319
vt 0.670702 0.843535
vt 0.683941 0.843325
vt 0.695654 0.842515
vt 0.813852 0.001503
vt 0.815637 0.013747
vt 0.817861 0.026806
vt 0.819928 0.037180
vt 0.837141 0.925818
vt 0.825924 0.926265
vt 0.812685 0.926054
vt 0.800972 0.925244
vt 0.588170 0.699456
vt 0.586405 0.711704
vt 0.584203 0.724766
vt 0.582153 0.735142
vt 0.659485 0.843089
vt 0.670702 0.826649
vt 0.683941 0.826891
vt 0.695654 0.827317
vt 0.828826 0.000000
vt 0.828946 0.012411
vt 0.829506 0.025637
vt 0.830355 0.036133
vt 0.837141 0.936403
vt 0.825924 0.936397
vt 0.812685 0.936639
vt 0.800972 0.937064
vt 0.599818 0.700606
vt 0.599717 0.713018
vt 0.599178 0.726244
vt 0.598347 0.736741
vt 0.659485 0.826655
vt 0.671347 0.809842
vt 0.684569 0.810534
vt 0.696234 0.812190
vt 0.843851 0.000471
vt 0.842302 0.012830
vt 0.841193 0.026003
vt 0.840820 0.036461
vt 0.837546 0.946937
vt 0.826311 0.946481
vt 0.813090 0.947173
vt 0.801424 0.948829
vt 0.611504 0.700220
vt 0.613072 0.712577
vt 0.614203 0.725749
vt 0.614593 0.736205
vt 0.660113 0.810298
vt 0.672627 0.793401
vt 0.685814 0.794534
vt 0.697386 0.797394
vt 0.858672 0.002908
vt 0.855476 0.014996
vt 0.852720 0.027898
vt 0.851141 0.038158
vt 0.838348 0.957242
vt 0.827079 0.956345
vt 0.813892 0.957478
vt 0.802320 0.960337
vt 0.623028 0.698306
vt 0.626243 0.710389
vt 0.629020 0.723287
vt 0.630615 0.733543
vt 0.661358 0.794298
vt 0.674519 0.777609
vt 0.687656 0.779165
vt 0.699089 0.783181
vt 0.873034 0.007269
vt 0.868243 0.018872
vt 0.863891 0.031290
vt 0.861144 0.041196
vt 0.839534 0.967141
vt 0.828214 0.965820
vt 0.815078 0.967377
vt 0.803644 0.971392
vt 0.634193 0.694896
vt 0.639003 0.706492
vt 0.643375 0.718902
vt 0.646138 0.728802
vt 0.663200 0.778929
vt 0.676992 0.762735
vt 0.690062 0.764690
vt 0.701314 0.769795
vt 0.886693 0.013479
vt 0.880384 0.024393
vt 0.874514 0.036121
vt 0.870656 0.045521
vt 0.841084 0.976463
vt 0.829698 0.974745
vt 0.816628 0.976699
vt 0.805375 0.981804
vt 0.644809 0.690047
vt 0.651135 0.700951
vt 0.657024 0.712669
vt 0.660897 0.722062
vt 0.665606 0.764454
vt 0.680002 0.749035
vt 0.692991 0.751356
vt 0.704023 0.757464
vt 0.899414 0.021433
vt 0.891692 0.031463
vt 0.884408 0.042307
vt 0.879516 0.051060
vt 0.842970 0.985051
vt 0.831504 0.982965
vt 0.818514 0.985287
vt 0.807482 0.991394
vt 0.654693 0.683845
vt 0.662431 0.693862
vt 0.669732 0.704694
vt 0.674639 0.713438
vt 0.668535 0.751120
vt 0.683498 0.736741
vt 0.696394 0.739392
vt 0.707170 0.746400
vt 0.910979 0.030994
vt 0.901972 0.039962
vt 0.893404 0.049744
vt 0.887570 0.057719
vt 0.492191 0.986467
vt 0.491083 0.979339
vt 0.504096 0.976904
vt 0.505157 0.983727
vt 0.833602 0.990341
vt 0.820706 0.992993
vt 0.809930 1.000000
vt 0.663676 0.676393
vt 0.672698 0.685346
vt 0.681282 0.695114
vt 0.687128 0.703078
vt 0.393569 0.380539
vt 0.391790 0.391466
vt 0.378788 0.388963
vt 0.380616 0.377734
vt 0.377172 0.401743
vt 0.364876 0.403757
vt 0.366449 0.391319
vt 0.918012 0.025244
vt 0.929055 0.037144
vt 0.921191 0.041999
vt 0.911050 0.049744
vt 0.901347 0.058303
vt 0.894683 0.065383
vt 0.490112 0.971251
vt 0.503166 0.969161
vt 0.515456 0.971184
vt 0.516428 0.979272
vt 0.656634 0.670653
vt 0.663734 0.662977
vt 0.671605 0.667821
vt 0.681760 0.675549
vt 0.691476 0.684092
vt 0.698152 0.691160
vt 0.390217 0.403904
vt 0.375795 0.415856
vt 0.363535 0.417491
vt 0.938445 0.050401
vt 0.929876 0.054259
vt 0.918769 0.060641
vt 0.908101 0.067838
vt 0.900731 0.073921
vt 0.489293 0.962340
vt 0.502382 0.960631
vt 0.514637 0.962272
vt 0.669768 0.654429
vt 0.678344 0.658274
vt 0.689461 0.664638
vt 0.700141 0.671817
vt 0.707521 0.677887
vt 0.388876 0.417638
vt 0.374680 0.431060
vt 0.362450 0.432288
vt 0.946023 0.064789
vt 0.936883 0.067565
vt 0.924998 0.072469
vt 0.913552 0.078187
vt 0.478877 0.966940
vt 0.478149 0.956240
vt 0.488641 0.952758
vt 0.501758 0.951459
vt 0.513985 0.952691
vt 0.674634 0.645154
vt 0.683778 0.647916
vt 0.695671 0.652801
vt 0.707127 0.658500
vt 0.399276 0.422362
vt 0.398272 0.436046
vt 0.387791 0.432435
vt 0.373847 0.447096
vt 0.361639 0.447894
vt 0.951658 0.080061
vt 0.942095 0.081688
vt 0.929630 0.085023
vt 0.917605 0.089172
vt 0.477620 0.944973
vt 0.488167 0.942669
vt 0.501305 0.941802
vt 0.513512 0.942602
vt 0.678247 0.635312
vt 0.687813 0.636924
vt 0.700283 0.640239
vt 0.712316 0.644368
vt 0.397522 0.450478
vt 0.386981 0.448041
vt 0.373309 0.463688
vt 0.361116 0.464042
vt 0.955254 0.095957
vt 0.945420 0.096388
vt 0.932586 0.098089
vt 0.920191 0.100605
vt 0.477299 0.933334
vt 0.487880 0.932247
vt 0.501030 0.931825
vt 0.513224 0.932180
vt 0.680547 0.625071
vt 0.690382 0.625487
vt 0.703218 0.627167
vt 0.715617 0.629662
vt 0.397039 0.465411
vt 0.386458 0.464189
vt 0.667059 0.271323
vt 0.681932 0.284010
vt 0.590634 0.378907
vt 0.555812 0.349203
vt 0.643221 0.222230
vt 0.643221 0.204287
vt 0.647325 0.186690
vt 0.655374 0.170113
vt 0.667059 0.155195
vt 0.681932 0.142507
vt 0.699421 0.132539
vt 0.718854 0.125673
vt 0.739483 0.122173
vt 0.760517 0.122173
vt 0.781146 0.125673
vt 0.800579 0.132539
vt 0.818068 0.142507
vt 0.832941 0.155195
vt 0.844626 0.170113
vt 0.852675 0.186690
vt 0.856779 0.204287
vt 0.856779 0.222230
vt 0.852675 0.239828
vt 0.844626 0.256404
vt 0.832941 0.271323
vt 0.818068 0.284010
vt 0.800579 0.293978
vt 0.781146 0.300844
vt 0.760517 0.304345
vt 0.739483 0.304345
vt 0.718854 0.300844
vt 0.699421 0.293978
vt 0.655374 0.256404
vt 0.647325 0.239828
vt 0.888614 0.529961
vt 0.888614 0.571162
vt 0.592409 0.571162
vt 0.592409 0.529961
vt 0.774623 0.426517
vt 0.725377 0.426517
vt 0.944188 0.349203
vt 0.909366 0.378908
vt 1.000000 0.192254
vt 1.000000 0.234263
vt 0.725377 0.000000
vt 0.774623 0.000000
vt 0.500000 0.234263
vt 0.500000 0.192255
vt 0.509607 0.275464
vt 0.909366 0.047610
vt 0.944188 0.077314
vt 0.555812 0.077314
vt 0.590634 0.047610
vt 0.631580 0.402246
vt 0.822922 0.418322
vt 0.971547 0.314275
vt 0.990393 0.151053
vt 0.528453 0.112243
vt 0.677078 0.008195
vt 0.868419 0.024271
vt 0.528453 0.314274
vt 0.677078 0.418322
vt 0.868419 0.402246
vt 0.990393 0.275464
vt 0.822922 0.008195
vt 0.509607 0.151054
vt 0.971547 0.112243
vt 0.631580 0.024271
vt 0.000000 0.234263
vt 0.000000 0.192255
vt 0.009607 0.151054
vt 0.028453 0.112243
vt 0.055812 0.077314
vt 0.090634 0.047610
vt 0.131580 0.024271
vt 0.177077 0.008195
vt 0.225377 0.000000
vt 0.274623 0.000000
vt 0.322922 0.008195
vt 0.368419 0.024271
vt 0.409366 0.047610
vt 0.444188 0.077314
vt 0.471547 0.112243
vt 0.490393 0.151053
vt 0.490393 0.275464
vt 0.471547 0.314275
vt 0.444188 0.349203
vt 0.409366 0.378908
vt 0.368419 0.402246
vt 0.322922 0.418322
vt 0.274623 0.426517
vt 0.225377 0.426517
vt 0.177078 0.418322
vt 0.131581 0.402246
vt 0.090634 0.378908
vt 0.055812 0.349203
vt 0.028453 0.314275
vt 0.009607 0.275464
vt 0.888614 0.693182
vt 0.888614 0.728111
vt 0.592409 0.728111
vt 0.592409 0.693182
vt 0.296205 0.885060
vt 0.296205 0.843051
vt 0.592409 0.843051
vt 0.592409 0.885060
vt 0.592409 0.426517
vt 0.592409 0.461446
vt 0.296205 0.461446
vt 0.296205 0.426517
vt 0.592409 0.583466
vt 0.592409 0.624667
vt 0.296205 0.624667
vt 0.296205 0.583466
vt 0.296204 0.456222
vt 0.000000 0.456222
vt 0.000000 0.426517
vt 0.296204 0.571162
vt 0.296204 0.613170
vt 0.000000 0.613170
vt 0.000000 0.571162
vt 0.296204 0.728111
vt 0.296204 0.757815
vt 0.000000 0.757815
vt 0.000000 0.728111
vt 0.888614 0.491150
vt 0.592409 0.491150
vt 0.888614 0.654371
vt 0.592409 0.654371
vt 0.296205 0.926261
vt 0.592409 0.926261
vt 0.296205 0.763039
vt 0.592409 0.763040
vt 0.592409 0.541458
vt 0.296205 0.541458
vt 0.592409 0.698406
vt 0.296205 0.698407
vt 0.296205 0.529961
vt 0.000000 0.529961
vt 0.296204 0.693182
vt 0.000000 0.693182
vt 0.888614 0.456222
vt 0.592409 0.456222
vt 0.888614 0.613170
vt 0.592409 0.613170
vt 0.296205 0.965071
vt 0.592409 0.965071
vt 0.296205 0.801850
vt 0.592409 0.801850
vt 0.296205 0.654371
vt 0.000000 0.654371
vt 0.592409 0.500257
vt 0.296205 0.500257
vt 0.592409 0.663478
vt 0.296205 0.663478
vt 0.296204 0.491150
vt 0.000000 0.491150
vt 0.296205 1.000000
vt 0.592409 1.000000
vt 0.888614 0.426517
s 1
usemtl Steel
f 1/1/1 13/2/1 14/3/1 2/4/1
f 2/5/2 14/6/2 15/7/2 3/8/2
f 3/8/3 15/7/4 16/9/5 4/10/3
f 4/10/6 16/9/7 17/11/8 5/12/6
f 5/13/9 17/14/9 18/15/9 6/16/9
f 6/16/10 18/15/10 19/17/10 7/18/10
f 7/18/11 19/17/11 20/19/11 8/20/11
f 8/21/12 20/22/12 21/23/12 9/24/12
f 9/24/13 21/23/14 22/25/15 10/26/13
f 10/26/16 22/25/17 23/27/18 11/28/16
f 11/29/19 23/30/19 24/31/19 12/32/19
f 1/1/20 12/32/20 24/31/20 13/2/20
f 13/2/21 25/33/21 26/34/21 14/3/21
f 14/6/22 26/35/22 27/36/22 15/7/22
f 15/7/4 27/36/23 28/37/23 16/9/5
f 16/9/7 28/37/24 29/38/24 17/11/8
f 17/14/25 29/39/25 30/40/25 18/15/25
f 18/15/26 30/40/26 31/41/26 19/17/26
f 19/17/27 31/41/27 32/42/27 20/19/27
f 20/22/28 32/43/28 33/44/28 21/23/28
f 21/23/14 33/44/29 34/45/29 22/25/15
f 22/25/17 34/45/30 35/46/30 23/27/18
f 23/30/31 35/47/31 36/48/31 24/31/31
f 24/31/32 36/48/32 25/33/32 13/2/32
f 25/33/33 37/49/33 38/50/33 26/34/33
f 26/35/34 38/51/34 39/52/34 27/36/34
f 27/36/35 39/52/35 40/53/35 28/37/35
f 28/37/36 40/53/36 41/54/36 29/38/36
f 29/39/37 41/55/37 42/56/37 30/40/37
f 30/40/38 42/56/38 43/57/38 31/41/38
f 31/41/39 43/57/39 44/58/39 32/42/39
f 32/43/40 44/59/40 45/60/40 33/44/40
f 33/44/41 45/60/41 46/61/41 34/45/41
f 34/45/42 46/61/42 47/62/42 35/46/42
f 35/47/43 47/63/43 48/64/43 36/48/43
f 36/48/44 48/64/44 37/49/44 25/33/44
f 37/49/45 49/65/45 50/66/45 38/50/45
f 38/51/46 50/67/46 51/68/46 39/52/46
f 39/52/47 51/68/47 52/69/47 40/53/47
f 40/53/48 52/69/48 53/70/48 41/54/48
f 41/55/49 53/71/49 54/72/49 42/56/49
f 42/56/50 54/72/50 55/73/50 43/57/50
f 43/57/51 55/73/51 56/74/51 44/58/51
f 44/59/52 56/75/52 57/76/52 45/60/52
f 45/60/53 57/76/53 58/77/53 46/61/53
f 46/61/54 58/77/54 59/78/54 47/62/54
f 47/63/55 59/79/55 60/80/55 48/64/55
f 48/64/56 60/80/56 49/65/56 37/49/56
f 49/65/57 61/81/57 62/82/57 50/66/57
f 50/67/58 62/83/58 63/84/58 51/68/58
f 51/68/59 63/84/59 64/85/59 52/69/59
f 52/69/60 64/85/60 65/86/60 53/70/60
f 53/71/61 65/87/61 66/88/61 54/72/61
f 54/72/62 66/88/62 67/89/62 55/73/62
f 55/73/63 67/89/63 68/90/63 56/74/63
f 56/75/64 68/91/64 69/92/64 57/76/64
f 57/76/65 69/92/65 70/93/65 58/77/65
f 58/77/66 70/93/66 71/94/66 59/78/66
f 59/79/67 71/95/67 72/96/67 60/80/67
f 60/80/68 72/96/68 61/81/68 49/65/68
f 61/81/69 73/97/69 74/98/69 62/82/69
f 62/83/70 74/99/70 75/100/70 63/84/70
f 63/84/71 75/100/71 76/101/71 64/85/71
f 64/85/72 76/101/72 77/102/72 65/86/72
f 65/103/73 77/104/73 78/105/73 66/106/73
f 66/88/74 78/107/74 79/108/74 67/89/74
f 67/89/75 79/108/75 80/109/75 68/90/75
f 68/91/76 80/110/76 81/111/76 69/92/76
f 69/92/77 81/111/77 82/112/77 70/93/77
f 70/93/78 82/112/78 83/113/78 71/94/78
f 71/114/79 83/115/79 84/116/79 72/117/79
f 72/96/80 84/118/80 73/97/80 61/81/80
f 73/119/81 85/120/81 86/121/81 74/122/81
f 74/99/82 86/123/82 87/124/82 75/100/82
f 75/100/83 87/124/83 88/125/83 76/101/83
f 76/101/84 88/125/84 89/126/84 77/102/84
f 77/104/85 89/127/85 90/128/85 78/105/85
f 78/105/86 90/128/86 91/129/86 79/130/86
f 79/130/87 91/129/87 92/131/87 80/132/87
f 80/110/88 92/133/88 93/134/88 81/111/88
f 81/111/89 93/134/89 94/135/89 82/112/89
f 82/112/90 94/135/90 95/136/90 83/113/90
f 83/115/91 95/137/91 96/138/91 84/116/91
f 84/116/92 96/138/92 85/120/92 73/119/92
f 85/120/93 97/139/93 98/140/93 86/121/93
f 86/123/94 98/141/94 99/142/94 87/124/94
f 87/124/95 99/142/95 100/143/95 88/125/95
f 88/125/96 100/143/96 101/144/96 89/126/96
f 89/127/97 101/145/97 102/146/97 90/128/97
f 90/128/98 102/146/98 103/147/98 91/129/98
f 91/129/99 103/147/99 104/148/99 92/131/99
f 92/133/100 104/149/100 105/150/100 93/134/100
f 93/134/101 105/150/101 106/151/101 94/135/101
f 94/135/102 106/151/102 107/152/102 95/136/102
f 95/137/103 107/153/103 108/154/103 96/138/103
f 96/138/104 108/154/104 97/139/104 85/120/104
f 97/139/105 109/155/105 110/156/105 98/140/105
f 98/141/106 110/157/106 111/158/106 99/142/106
f 99/142/107 111/158/107 112/159/107 100/143/107
f 100/143/108 112/159/108 113/160/108 101/144/108
f 101/145/109 113/161/109 114/162/109 102/146/109
f 102/146/110 114/162/110 115/163/110 103/147/110
f 103/147/111 115/163/111 116/164/111 104/148/111
f 104/149/112 116/165/112 117/166/112 105/150/112
f 105/150/113 117/166/113 118/167/113 106/151/113
f 106/151/114 118/167/114 119/168/114 107/152/114
f 107/153/115 119/169/115 120/170/115 108/154/115
f 108/154/116 120/170/116 109/155/116 97/139/116
f 109/155/117 121/171/117 122/172/117 110/156/117
f 110/157/118 122/173/118 123/174/118 111/158/118
f 111/158/119 123/174/119 124/175/119 112/159/119
f 112/159/120 124/175/120 125/176/120 113/160/120
f 113/161/121 125/177/121 126/178/121 114/162/121
f 114/162/122 126/178/122 127/179/122 115/163/122
f 115/163/123 127/179/123 128/180/123 116/164/123
f 116/165/124 128/181/124 129/182/124 117/166/124
f 117/166/125 129/182/125 130/183/125 118/167/125
f 118/167/126 130/183/126 131/184/126 119/168/126
f 119/169/127 131/185/127 132/186/127 120/170/127
f 120/170/128 132/186/128 121/171/128 109/155/128
f 121/171/129 133/187/129 134/188/129 122/172/129
f 122/173/130 134/189/130 135/190/130 123/174/130
f 123/174/131 135/190/131 136/191/131 124/175/131
f 124/175/132 136/191/132 137/192/132 125/176/132
f 125/177/133 137/193/133 138/194/133 126/178/133
f 126/178/134 138/194/134 139/195/134 127/179/134
f 127/179/135 139/195/135 140/196/135 128/180/135
f 128/181/136 140/197/136 141/198/136 129/182/136
f 129/182/137 141/198/137 142/199/137 130/183/137
f 130/183/138 142/199/138 143/200/138 131/184/138
f 131/185/139 143/201/139 144/202/139 132/186/139
f 132/186/140 144/202/140 133/187/140 121/171/140
f 133/187/141 145/203/141 146/204/141 134/188/141
f 134/189/142 146/205/142 147/206/142 135/190/142
f 135/190/143 147/206/143 148/207/143 136/191/143
f 136/191/144 148/207/144 149/208/144 137/192/144
f 137/193/145 149/209/145 150/210/145 138/194/145
f 138/194/146 150/210/146 151/211/146 139/195/146
f 139/195/147 151/211/147 152/212/147 140/196/147
f 140/197/148 152/213/148 153/214/148 141/198/148
f 141/198/149 153/214/149 154/215/149 142/199/149
f 142/199/150 154/215/150 155/216/150 143/200/150
f 143/201/151 155/217/151 156/218/151 144/202/151
f 144/202/152 156/218/152 145/203/152 133/187/152
f 145/203/153 157/219/153 158/220/153 146/204/153
f 146/205/154 158/221/154 159/222/154 147/206/154
f 147/206/155 159/222/155 160/223/155 148/207/155
f 148/207/156 160/223/156 161/224/156 149/208/156
f 149/209/157 161/225/157 162/226/157 150/210/157
f 150/210/158 162/226/158 163/227/158 151/211/158
f 151/211/159 163/227/159 164/228/159 152/212/159
f 152/213/160 164/229/160 165/230/160 153/214/160
f 153/214/161 165/230/161 166/231/161 154/215/161
f 154/215/162 166/231/162 167/232/162 155/216/162
f 155/217/163 167/233/163 168/234/163 156/218/163
f 156/218/164 168/234/164 157/219/164 145/203/164
f 157/219/165 169/235/165 170/236/165 158/220/165
f 158/221/166 170/237/166 171/238/166 159/222/166
f 159/222/167 171/238/167 172/239/167 160/223/167
f 160/223/168 172/239/168 173/240/168 161/224/168
f 161/225/169 173/241/169 174/242/169 162/226/169
f 162/226/170 174/242/170 175/243/170 163/227/170
f 163/227/171 175/243/171 176/244/171 164/228/171
f 164/229/172 176/245/172 177/246/172 165/230/172
f 165/230/173 177/246/173 178/247/173 166/231/173
f 166/231/174 178/247/174 179/248/174 167/232/174
f 167/233/175 179/249/175 180/250/175 168/234/175
f 168/234/176 180/250/176 169/235/176 157/219/176
f 169/235/177 181/251/177 182/252/177 170/236/177
f 170/237/178 182/253/178 183/254/178 171/238/178
f 171/238/179 183/254/179 184/255/179 172/239/179
f 172/239/180 184/255/180 185/256/180 173/240/180
f 173/241/181 185/257/181 186/258/181 174/242/181
f 174/242/182 186/258/182 187/259/182 175/243/182
f 175/243/183 187/259/183 188/260/183 176/244/183
f 176/245/184 188/261/184 189/262/184 177/246/184
f 177/246/185 189/262/185 190/263/185 178/247/185
f 178/247/186 190/263/186 191/264/186 179/248/186
f 179/249/187 191/265/187 192/266/187 180/250/187
f 180/250/188 192/266/188 181/251/188 169/235/188
f 181/251/189 193/267/189 194/268/189 182/252/189
f 182/253/190 194/269/190 195/270/190 183/254/190
f 183/254/191 195/270/191 196/271/191 184/255/191
f 184/255/192 196/271/192 197/272/192 185/256/192
f 185/257/193 197/273/193 198/274/193 186/258/193
f 186/258/194 198/274/194 199/275/194 187/259/194
f 187/259/195 199/275/195 200/276/195 188/260/195
f 188/261/196 200/277/196 201/278/196 189/262/196
f 189/262/197 201/278/197 202/279/197 190/263/197
f 190/263/198 202/279/198 203/280/198 191/264/198
f 191/265/199 203/281/199 204/282/199 192/266/199
f 192/266/200 204/282/200 193/267/200 181/251/200
f 193/267/201 205/283/201 206/284/201 194/268/201
f 194/269/202 206/285/202 207/286/202 195/270/202
f 195/270/203 207/286/203 208/287/203 196/271/203
f 196/271/204 208/287/204 209/288/204 197/272/204
f 197/273/205 209/289/205 210/290/205 198/274/205
f 198/274/206 210/290/206 211/291/206 199/275/206
f 199/275/207 211/291/207 212/292/207 200/276/207
f 200/277/208 212/293/208 213/294/208 201/278/208
f 201/278/209 213/294/209 214/295/209 202/279/209
f 202/279/210 214/295/210 215/296/210 203/280/210
f 203/281/211 215/297/211 216/298/211 204/282/211
f 204/282/212 216/298/212 205/283/212 193/267/212
f 205/299/213 217/300/213 218/301/213 206/302/213
f 206/285/214 218/303/214 219/304/214 207/286/214
f 207/286/215 219/304/215 220/305/215 208/287/215
f 208/287/216 220/305/216 221/306/216 209/288/216
f 209/289/217 221/307/217 222/308/217 210/290/217
f 210/290/218 222/308/218 223/309/218 211/291/218
f 211/310/219 223/311/219 224/312/219 212/313/219
f 212/293/220 224/314/220 225/315/220 213/294/220
f 213/294/221 225/315/221 226/316/221 214/295/221
f 214/295/222 226/316/222 227/317/222 215/296/222
f 215/297/223 227/318/223 228/319/223 216/298/223
f 216/298/224 228/319/224 217/320/224 205/283/224
f 217/300/225 229/321/225 230/322/225 218/301/225
f 218/303/226 230/323/226 231/324/226 219/304/226
f 219/304/227 231/324/227 232/325/227 220/305/227
f 220/305/228 232/325/228 233/326/228 221/306/228
f 221/306/229 233/326/229 234/327/229 222/328/229
f 222/329/230 234/330/230 235/331/230 223/311/230
f 223/311/231 235/331/231 236/332/231 224/312/231
f 224/314/232 236/333/232 237/334/232 225/315/232
f 225/315/233 237/334/233 238/335/233 226/316/233
f 226/316/234 238/335/234 239/336/234 227/317/234
f 227/317/235 239/336/235 240/337/235 228/338/235
f 228/339/236 240/340/236 229/321/236 217/300/236
f 229/321/237 241/341/237 242/342/237 230/322/237
f 230/323/238 242/343/238 243/344/238 231/324/238
f 231/324/239 243/344/239 244/345/239 232/325/239
f 232/325/240 244/345/240 245/346/240 233/326/240
f 233/326/241 245/346/241 246/347/241 234/327/241
f 234/330/242 246/348/242 247/349/242 235/331/242
f 235/331/243 247/349/243 248/350/243 236/332/243
f 236/333/244 248/351/244 249/352/244 237/334/244
f 237/334/245 249/352/245 250/353/245 238/335/245
f 238/335/246 250/353/246 251/354/246 239/336/246
f 239/336/247 251/354/247 252/355/247 240/337/247
f 240/340/248 252/356/248 241/341/248 229/321/248
f 241/341/249 253/357/249 254/358/249 242/342/249
f 242/342/250 254/358/250 255/359/250 243/360/250
f 243/344/251 255/361/251 256/362/251 244/345/251
f 244/345/252 256/362/252 257/363/252 245/346/252
f 245/346/253 257/363/253 258/364/253 246/347/253
f 246/348/254 258/365/254 259/366/254 247/349/254
f 247/349/255 259/366/255 260/367/255 248/350/255
f 248/350/256 260/367/256 261/368/256 249/369/256
f 249/352/257 261/370/257 262/371/257 250/353/257
f 250/353/258 262/371/258 263/372/258 251/354/258
f 251/354/259 263/372/259 264/373/259 252/355/259
f 252/356/260 264/374/260 253/357/260 241/341/260
f 253/357/261 265/375/261 266/376/261 254/358/261
f 254/358/262 266/376/262 267/377/262 255/359/262
f 255/361/263 267/378/263 268/379/263 256/362/263
f 256/362/264 268/379/264 269/380/264 257/363/264
f 257/363/265 269/380/265 270/381/265 258/364/265
f 258/365/266 270/382/266 271/383/266 259/366/266
f 259/366/267 271/383/267 272/384/267 260/367/267
f 260/367/268 272/384/268 273/385/268 261/368/268
f 261/370/269 273/386/269 274/387/269 262/371/269
f 262/371/270 274/387/270 275/388/270 263/372/270
f 263/372/271 275/388/271 276/389/271 264/373/271
f 264/374/272 276/390/272 265/375/272 253/357/272
f 265/375/273 277/391/273 278/392/273 266/376/273
f 266/376/274 278/392/274 279/393/274 267/377/274
f 267/378/275 279/394/276 280/395/277 268/379/275
f 268/379/278 280/395/279 281/396/280 269/380/278
f 269/380/281 281/396/281 282/397/281 270/381/281
f 270/382/282 282/398/282 283/399/282 271/383/282
f 271/383/283 283/399/283 284/400/283 272/384/283
f 272/384/284 284/400/284 285/401/284 273/385/284
f 273/386/285 285/402/286 286/403/287 274/387/285
f 274/387/288 286/403/289 287/404/290 275/388/288
f 275/388/291 287/404/291 288/405/291 276/389/291
f 276/390/292 288/406/292 277/391/292 265/375/292
f 277/391/293 289/407/293 290/408/293 278/392/293
f 278/392/294 290/408/294 291/409/294 279/393/294
f 279/394/276 291/410/295 292/411/295 280/395/277
f 280/395/279 292/411/296 293/412/296 281/396/280
f 281/396/297 293/412/297 294/413/297 282/397/297
f 282/398/298 294/414/298 295/415/298 283/399/298
f 283/399/299 295/415/299 296/416/299 284/400/299
f 284/400/300 296/416/300 297/417/300 285/401/300
f 285/402/286 297/418/301 298/419/301 286/403/287
f 286/403/289 298/419/302 299/420/302 287/404/290
f 287/404/303 299/420/303 300/421/303 288/405/303
f 288/406/304 300/422/304 289/407/304 277/391/304
f 289/407/305 301/423/305 302/424/305 290/408/305
f 290/408/306 302/424/306 303/425/306 291/409/306
f 291/410/307 303/426/307 304/427/307 292/411/307
f 292/411/308 304/427/308 305/428/308 293/412/308
f 293/412/309 305/428/309 306/429/309 294/413/309
f 294/414/310 306/430/310 307/431/310 295/415/310
f 295/415/311 307/431/311 308/432/311 296/416/311
f 296/416/19 308/432/19 309/433/19 297/417/19
f 297/418/312 309/434/312 310/435/312 298/419/312
f 298/419/313 310/435/313 311/436/313 299/420/313
f 299/420/12 311/436/12 312/437/12 300/421/12
f 300/422/314 312/438/314 301/423/314 289/407/314
f 301/423/315 313/439/315 314/440/315 302/424/315
f 302/424/316 314/440/316 315/441/316 303/425/316
f 303/426/317 315/442/317 316/443/317 304/427/317
f 304/427/318 316/443/318 317/444/318 305/428/318
f 305/428/319 317/444/319 318/445/319 306/429/319
f 306/430/320 318/446/320 319/447/320 307/431/320
f 307/431/321 319/447/321 320/448/321 308/432/321
f 308/432/322 320/448/322 321/449/322 309/433/322
f 309/434/323 321/450/323 322/451/323 310/435/323
f 310/435/324 322/451/324 323/452/324 311/436/324
f 311/436/325 323/452/325 324/453/325 312/437/325
f 312/438/326 324/454/326 313/439/326 301/423/326
f 313/439/38 325/455/38 326/456/38 314/440/38
f 314/440/327 326/456/327 327/457/327 315/441/327
f 315/442/328 327/458/328 328/459/328 316/443/328
f 316/443/329 328/459/329 329/460/329 317/444/329
f 317/444/330 329/460/330 330/461/330 318/445/330
f 318/446/331 330/462/331 331/463/331 319/447/331
f 319/447/332 331/463/332 332/464/332 320/448/332
f 320/448/333 332/464/333 333/465/333 321/449/333
f 321/450/42 333/466/42 334/467/42 322/451/42
f 322/451/334 334/467/334 335/468/334 323/452/334
f 323/452/40 335/468/40 336/469/40 324/453/40
f 324/454/335 336/470/335 325/455/335 313/439/335
f 325/455/336 337/471/336 338/472/336 326/456/336
f 326/456/337 338/472/337 339/473/337 327/457/337
f 327/458/338 339/474/338 340/475/338 328/459/338
f 328/459/339 340/475/339 341/476/339 329/460/339
f 329/460/340 341/476/340 342/477/340 330/461/340
f 330/462/341 342/478/341 343/479/341 331/463/341
f 331/463/342 343/479/342 344/480/342 332/464/342
f 332/464/343 344/480/343 345/481/343 333/465/343
f 333/466/344 345/482/344 346/483/344 334/467/344
f 334/467/345 346/483/345 347/484/345 335/468/345
f 335/468/52 347/484/52 348/485/52 336/469/52
f 336/470/346 348/486/346 337/471/346 325/455/346
f 337/471/347 349/487/347 350/488/347 338/472/347
f 338/472/348 350/488/348 351/489/348 339/473/348
f 339/474/349 351/490/349 352/491/349 340/475/349
f 340/475/350 352/491/350 353/492/350 341/476/350
f 341/476/58 353/492/58 354/493/58 342/477/58
f 342/478/351 354/494/351 355/495/351 343/479/351
f 343/479/352 355/495/352 356/496/352 344/480/352
f 344/480/353 356/496/353 357/497/353 345/481/353
f 345/482/354 357/498/354 358/499/354 346/483/354
f 346/483/65 358/499/65 359/500/65 347/484/65
f 347/484/355 359/500/355 360/501/355 348/485/355
f 348/486/356 360/502/356 349/487/356 337/471/356
f 349/487/357 361/503/357 362/504/357 350/488/357
f 350/505/358 362/506/358 363/507/358 351/508/358
f 351/490/359 363/509/359 364/510/359 352/491/359
f 352/491/71 364/510/71 365/511/71 353/492/71
f 353/492/360 365/511/360 366/512/360 354/493/360
f 354/494/361 366/513/361 367/514/361 355/495/361
f 355/495/362 367/514/362 368/515/362 356/496/362
f 356/516/363 368/517/363 369/518/363 357/519/363
f 357/498/364 369/520/364 370/521/364 358/499/364
f 358/499/365 370/521/365 371/522/365 359/500/365
f 359/500/366 371/522/366 372/523/366 360/501/366
f 360/502/367 372/524/367 361/503/367 349/487/367
f 361/525/368 373/526/368 374/527/368 362/506/368
f 362/506/369 374/527/369 375/528/369 363/507/369
f 363/509/370 375/529/370 376/530/370 364/510/370
f 364/510/371 376/530/371 377/531/371 365/511/371
f 365/511/372 377/531/372 378/532/372 366/512/372
f 366/533/373 378/534/373 379/535/373 367/536/373
f 367/536/374 379/535/374 380/537/374 368/517/374
f 368/517/375 380/537/375 381/538/375 369/518/375
f 369/520/376 381/539/376 382/540/376 370/521/376
f 370/521/89 382/540/89 383/541/89 371/522/89
f 371/522/377 383/541/377 384/542/377 372/523/377
f 372/543/378 384/544/378 373/526/378 361/525/378
f 373/526/379 385/545/379 386/546/379 374/527/379
f 374/527/380 386/546/380 387/547/380 375/528/380
f 375/529/381 387/548/381 388/549/381 376/530/381
f 376/530/382 388/549/382 389/550/382 377/531/382
f 377/531/383 389/550/383 390/551/383 378/532/383
f 378/534/93 390/552/93 391/553/93 379/535/93
f 379/535/384 391/553/384 392/554/384 380/537/384
f 380/537/385 392/554/385 393/555/385 381/538/385
f 381/539/386 393/556/386 394/557/386 382/540/386
f 382/540/387 394/557/387 395/558/387 383/541/387
f 383/541/388 395/558/388 396/559/388 384/542/388
f 384/544/389 396/560/389 385/545/389 373/526/389
f 385/545/110 397/561/110 398/562/110 386/546/110
f 386/546/109 398/562/109 399/563/109 387/547/109
f 387/548/390 399/564/390 400/565/390 388/549/390
f 388/549/391 400/565/391 401/566/391 389/550/391
f 389/550/392 401/566/392 402/567/392 390/551/392
f 390/552/105 402/568/105 403/569/105 391/553/105
f 391/553/116 403/569/116 404/570/116 392/554/116
f 392/554/393 404/570/393 405/571/393 393/555/393
f 393/556/394 405/572/394 406/573/394 394/557/394
f 394/557/395 406/573/395 407/574/395 395/558/395
f 395/558/396 407/574/396 408/575/396 396/559/396
f 396/560/111 408/576/111 397/561/111 385/545/111
f 397/561/397 409/577/397 410/578/397 398/562/397
f 398/562/398 410/578/398 411/579/398 399/563/398
f 399/564/399 411/580/399 412/581/399 400/565/399
f 400/565/400 412/581/400 413/582/400 401/566/400
f 401/566/401 413/582/401 414/583/401 402/567/401
f 402/568/402 414/584/402 415/585/402 403/569/402
f 403/569/403 415/585/403 416/586/403 404/570/403
f 404/570/404 416/586/404 417/587/404 405/571/404
f 405/572/405 417/588/405 418/589/405 406/573/405
f 406/573/406 418/589/406 419/590/406 407/574/406
f 407/574/407 419/590/407 420/591/407 408/575/407
f 408/576/408 420/592/408 409/577/408 397/561/408
f 409/577/409 421/593/409 422/594/409 410/578/409
f 410/578/410 422/594/410 423/595/410 411/579/410
f 411/580/411 423/596/411 424/597/411 412/581/411
f 412/581/131 424/597/131 425/598/131 413/582/131
f 413/582/412 425/598/412 426/599/412 414/583/412
f 414/584/413 426/600/413 427/601/413 415/585/413
f 415/585/414 427/601/414 428/602/414 416/586/414
f 416/586/139 428/602/139 429/603/139 417/587/139
f 417/588/415 429/604/415 430/605/415 418/589/415
f 418/589/416 430/605/416 431/606/416 419/590/416
f 419/590/417 431/606/417 432/607/417 420/591/417
f 420/592/418 432/608/418 421/593/418 409/577/418
f 421/593/419 433/609/419 434/610/419 422/594/419
f 422/594/145 434/610/145 435/611/145 423/595/145
f 423/596/420 435/612/420 436/613/420 424/597/420
f 424/597/421 436/613/421 437/614/421 425/598/421
f 425/598/422 437/614/422 438/615/422 426/599/422
f 426/600/423 438/616/423 439/617/423 427/601/423
f 427/601/424 439/617/424 440/618/424 428/602/424
f 428/602/151 440/618/151 441/619/151 429/603/151
f 429/604/425 441/620/425 442/621/425 430/605/425
f 430/605/426 442/621/426 443/622/426 431/606/426
f 431/606/427 443/622/427 444/623/427 432/607/427
f 432/608/428 444/624/428 433/609/428 421/593/428
f 433/609/429 445/625/429 446/626/429 434/610/429
f 434/610/157 446/626/157 447/627/157 435/611/157
f 435/612/430 447/628/430 448/629/430 436/613/430
f 436/613/431 448/629/431 449/630/431 437/614/431
f 437/614/432 449/630/432 450/631/432 438/615/432
f 438/616/433 450/632/433 451/633/433 439/617/433
f 439/617/434 451/633/434 452/634/434 440/618/434
f 440/618/163 452/634/163 453/635/163 441/619/163
f 441/620/435 453/636/435 454/637/435 442/621/435
f 442/621/436 454/637/436 455/638/436 443/622/436
f 443/622/437 455/638/437 456/639/437 444/623/437
f 444/624/438 456/640/438 445/625/438 433/609/438
f 445/625/439 457/641/439 458/642/439 446/626/439
f 446/626/440 458/642/440 459/643/440 447/627/440
f 447/628/441 459/644/441 460/645/441 448/629/441
f 448/629/167 460/645/167 461/646/167 449/630/167
f 449/630/442 461/646/442 462/647/442 450/631/442
f 450/632/443 462/648/443 463/649/443 451/633/443
f 451/633/444 463/649/444 464/650/444 452/634/444
f 452/634/175 464/650/175 465/651/175 453/635/175
f 453/636/445 465/652/445 466/653/445 454/637/445
f 454/637/446 466/653/446 467/654/446 455/638/446
f 455/638/447 467/654/447 468/655/447 456/639/447
f 456/640/448 468/656/448 457/641/448 445/625/448
f 457/641/449 469/657/449 470/658/449 458/642/449
f 458/642/450 470/658/450 471/659/450 459/643/450
f 459/644/451 471/660/451 472/661/451 460/645/451
f 460/645/452 472/661/452 473/662/452 461/646/452
f 461/646/453 473/662/453 474/663/453 462/647/453
f 462/648/454 474/664/454 475/665/454 463/649/454
f 463/649/455 475/665/455 476/666/455 464/650/455
f 464/650/456 476/666/456 477/667/456 465/651/456
f 465/652/457 477/668/457 478/669/457 466/653/457
f 466/653/458 478/669/458 479/670/458 467/654/458
f 467/654/459 479/670/459 480/671/459 468/655/459
f 468/656/460 480/672/460 469/657/460 457/641/460
f 469/657/194 481/673/194 482/674/194 470/658/194
f 470/658/461 482/674/461 483/675/461 471/659/461
f 471/660/192 483/676/192 484/677/192 472/661/192
f 472/661/462 484/677/462 485/678/462 473/662/462
f 473/662/463 485/678/463 486/679/463 474/663/463
f 474/664/464 486/680/464 487/681/464 475/665/464
f 475/665/465 487/681/465 488/682/465 476/666/465
f 476/666/466 488/682/466 489/683/466 477/667/466
f 477/668/467 489/684/467 490/685/467 478/669/467
f 478/669/468 490/685/468 491/686/468 479/670/468
f 479/670/469 491/686/469 492/687/469 480/671/469
f 480/672/195 492/688/195 481/673/195 469/657/195
f 481/673/470 493/689/470 494/690/470 482/674/470
f 482/674/471 494/690/471 495/691/471 483/675/471
f 483/676/472 495/692/472 496/693/472 484/677/472
f 484/677/473 496/693/473 497/694/473 485/678/473
f 485/678/474 497/694/474 498/695/474 486/679/474
f 486/680/475 498/696/475 499/697/475 487/681/475
f 487/681/476 499/697/476 500/698/476 488/682/476
f 488/682/477 500/698/477 501/699/477 489/683/477
f 489/684/478 501/700/478 502/701/478 490/685/478
f 490/685/479 502/701/479 503/702/479 491/686/479
f 491/686/480 503/702/480 504/703/480 492/687/480
f 492/688/481 504/704/481 493/689/481 481/673/481
f 493/689/482 505/705/482 506/706/482 494/690/482
f 494/690/483 506/706/483 507/707/483 495/691/483
f 495/692/216 507/708/216 508/709/216 496/693/216
f 496/693/484 508/709/484 509/710/484 497/694/484
f 497/694/485 509/710/485 510/711/485 498/695/485
f 498/712/486 510/713/486 511/714/486 499/715/486
f 499/697/487 511/716/487 512/717/487 500/698/487
f 500/698/488 512/717/488 513/718/488 501/699/488
f 501/700/489 513/719/489 514/720/489 502/701/489
f 502/701/490 514/720/490 515/721/490 503/702/490
f 503/702/491 515/721/491 516/722/491 504/703/491
f 504/723/492 516/724/492 505/725/492 493/726/492
f 505/725/493 517/727/493 518/728/493 506/729/493
f 506/730/494 518/731/494 519/732/494 507/708/494
f 507/708/495 519/732/495 520/733/495 508/709/495
f 508/709/496 520/733/496 521/734/496 509/710/496
f 509/710/497 521/734/497 522/735/497 510/711/497
f 510/713/498 522/736/498 523/737/498 511/714/498
f 511/714/499 523/737/499 524/738/499 512/739/499
f 512/740/500 524/741/500 525/742/500 513/719/500
f 513/719/501 525/742/501 526/743/501 514/720/501
f 514/720/502 526/743/502 527/744/502 515/721/502
f 515/721/503 527/744/503 528/745/503 516/722/503
f 516/724/504 528/746/504 517/727/504 505/725/504
f 517/727/505 529/747/505 530/748/505 518/728/505
f 518/731/241 530/749/241 531/750/241 519/732/241
f 519/732/506 531/750/506 532/751/506 520/733/506
f 520/733/507 532/751/507 533/752/507 521/734/507
f 521/734/508 533/752/508 534/753/508 522/735/508
f 522/736/509 534/754/509 535/755/509 523/737/509
f 523/737/510 535/755/510 536/756/510 524/738/510
f 524/741/511 536/757/511 537/758/511 525/742/511
f 525/742/512 537/758/512 538/759/512 526/743/512
f 526/743/513 538/759/513 539/760/513 527/744/513
f 527/744/244 539/760/244 540/761/244 528/745/244
f 528/746/514 540/762/514 529/747/514 517/727/514
f 529/747/515 541/763/515 542/764/515 530/748/515
f 530/749/516 542/765/516 543/766/516 531/750/516
f 531/750/517 543/766/517 544/767/517 532/751/517
f 532/751/518 544/767/518 545/768/518 533/752/518
f 533/769/519 545/770/519 546/771/519 534/754/519
f 534/754/520 546/771/520 547/772/520 535/755/520
f 535/755/521 547/772/521 548/773/521 536/756/521
f 536/757/522 548/774/522 549/775/522 537/758/522
f 537/758/523 549/775/523 550/776/523 538/759/523
f 538/759/257 550/776/257 551/777/257 539/760/257
f 539/778/524 551/779/524 552/780/524 540/762/524
f 540/762/525 552/780/525 541/763/525 529/747/525
f 541/763/266 553/781/266 554/782/266 542/764/266
f 542/765/526 554/783/526 555/784/526 543/766/526
f 543/766/527 555/784/527 556/785/527 544/767/527
f 544/767/528 556/785/528 557/786/528 545/768/528
f 545/770/262 557/787/262 558/788/262 546/771/262
f 546/771/529 558/788/529 559/789/529 547/772/529
f 547/772/530 559/789/530 560/790/530 548/773/530
f 548/774/531 560/791/531 561/792/531 549/775/531
f 549/775/532 561/792/532 562/793/532 550/776/532
f 550/776/533 562/793/533 563/794/533 551/777/533
f 551/779/268 563/795/268 564/796/268 552/780/268
f 552/780/534 564/796/534 553/781/534 541/763/534
f 553/781/535 565/797/535 566/798/535 554/782/535
f 554/783/536 566/799/536 567/800/536 555/784/536
f 555/784/537 567/800/537 568/801/537 556/785/537
f 556/785/538 568/801/538 569/802/538 557/786/538
f 557/787/539 569/803/539 570/804/539 558/788/539
f 558/788/540 570/804/540 571/805/540 559/789/540
f 559/789/541 571/805/541 572/806/541 560/790/541
f 560/791/542 572/807/542 573/808/542 561/792/542
f 561/792/543 573/808/543 574/809/543 562/793/543
f 562/793/544 574/809/544 575/810/544 563/794/544
f 563/795/545 575/811/545 576/812/545 564/796/545
f 564/796/546 576/812/546 565/797/546 553/781/546
f 565/797/547 1/1/547 2/4/547 566/798/547
f 566/799/548 2/5/548 3/8/548 567/800/548
f 567/800/549 3/8/549 4/10/549 568/801/549
f 568/801/550 4/10/550 5/12/550 569/802/550
f 569/803/551 5/13/551 6/16/551 570/804/551
f 570/804/552 6/16/552 7/18/552 571/805/552
f 571/805/553 7/18/553 8/20/553 572/806/553
f 572/807/303 8/21/303 9/24/303 573/808/303
f 573/808/554 9/24/554 10/26/554 574/809/554
f 574/809/555 10/26/555 11/28/555 575/810/555
f 575/811/300 11/29/300 12/32/300 576/812/300
f 576/812/556 12/32/556 1/1/556 565/797/556
f 607/813/557 606/814/557 638/815/557 639/816/557
f 578/817/557 579/818/557 580/819/557 581/820/557 582/821/557 583/822/557 584/823/557 585/824/557 586/825/557 587/826/557 588/827/557 589/828/557 590/829/557 591/830/557 592/831/557 593/832/557 594/833/557 595/834/557 596/835/557 597/836/557 598/837/557 599/838/557 600/839/557 601/840/557 602/841/557 603/842/557 604/843/557 605/844/557 606/814/557 607/813/557 608/845/557 577/846/557
f 639/847/558 638/848/558 670/849/558 671/850/558
f 603/842/557 602/841/557 634/851/557 635/852/557
f 599/838/557 598/837/557 630/853/557 631/854/557
f 595/834/557 594/833/557 626/855/557 627/856/557
f 587/826/557 586/825/557 618/857/557 619/858/557
f 579/818/557 578/817/557 609/859/557 611/860/557
f 578/817/557 577/846/557 610/861/557 609/859/557
f 591/830/557 590/829/557 622/862/557 623/863/557
f 583/822/557 582/821/557 614/864/557 615/865/557
f 606/814/557 605/844/557 637/866/557 638/815/557
f 602/841/557 601/840/557 633/867/557 634/851/557
f 598/837/557 597/836/557 629/868/557 630/853/557
f 594/833/557 593/832/557 625/869/557 626/855/557
f 582/821/557 581/820/557 613/870/557 614/864/557
f 586/825/557 585/824/557 617/871/557 618/857/557
f 590/829/557 589/828/557 621/872/557 622/862/557
f 577/846/557 608/845/557 640/873/557 610/861/557
f 605/844/557 604/843/557 636/874/557 637/866/557
f 601/840/557 600/839/557 632/875/557 633/867/557
f 597/836/557 596/835/557 628/876/557 629/868/557
f 589/828/557 588/827/557 620/877/557 621/872/557
f 581/820/557 580/819/557 612/878/557 613/870/557
f 593/832/557 592/831/557 624/879/557 625/869/557
f 585/824/557 584/823/557 616/880/557 617/871/557
f 608/845/557 607/813/557 639/816/557 640/873/557
f 604/843/557 603/842/557 635/852/557 636/874/557
f 600/839/557 599/838/557 631/854/557 632/875/557
f 596/835/557 595/834/557 627/856/557 628/876/557
f 592/831/557 591/830/557 623/863/557 624/879/557
f 584/823/557 583/822/557 615/865/557 616/880/557
f 588/827/557 587/826/557 619/858/557 620/877/557
f 580/819/557 579/818/557 611/860/557 612/878/557
f 641/881/559 642/882/559 672/883/559 671/884/559 670/885/559 669/886/559 668/887/559 667/888/559 666/889/559 665/890/559 664/891/559 663/892/559 662/893/559 661/894/559 660/895/559 659/896/559 658/860/559 657/859/559 656/897/559 655/898/559 654/899/559 653/900/559 652/901/559 651/902/559 650/903/559 649/904/559 648/905/559 647/906/559 646/907/559 645/908/559 644/909/559 643/910/559
f 635/911/560 634/912/560 666/913/560 667/914/560
f 631/915/561 630/916/561 662/917/561 663/918/561
f 627/919/562 626/920/562 658/921/562 659/922/562
f 623/923/563 622/924/563 654/925/563 655/926/563
f 619/922/564 618/927/564 650/928/564 651/929/564
f 615/930/565 614/931/565 646/932/565 647/933/565
f 611/934/566 609/935/566 641/936/566 643/937/566
f 640/938/567 639/847/567 671/850/567 672/939/567
f 636/940/568 635/911/568 667/914/568 668/941/568
f 632/942/569 631/915/569 663/918/569 664/943/569
f 628/944/570 627/934/570 659/913/570 660/945/570
f 624/946/571 623/923/571 655/926/571 656/947/571
f 620/948/572 619/913/572 651/934/572 652/949/572
f 616/950/573 615/930/573 647/933/573 648/951/573
f 612/952/574 611/934/574 643/937/574 644/953/574
f 610/954/575 640/938/575 672/939/575 642/955/575
f 637/956/576 636/940/576 668/941/576 669/957/576
f 633/958/577 632/942/577 664/943/577 665/959/577
f 629/960/578 628/944/578 660/945/578 661/961/578
f 613/962/579 612/952/579 644/953/579 645/963/579
f 625/964/580 624/946/580 656/947/580 657/965/580
f 621/966/581 620/948/581 652/949/581 653/967/581
f 617/968/582 616/950/582 648/951/582 649/969/582
f 638/848/583 637/956/583 669/957/583 670/849/583
f 634/970/584 633/958/584 665/959/584 666/971/584
f 630/916/585 629/960/585 661/961/585 662/917/585
f 626/920/586 625/964/586 657/965/586 658/921/586
f 618/927/587 617/968/587 649/969/587 650/928/587
f 614/931/588 613/962/588 645/963/588 646/932/588
f 609/972/589 610/954/589 642/955/589 641/919/589
f 622/924/590 621/966/590 653/967/590 654/925/590
