# Blender 4.5.5 LTS
# www.blender.org
mtllib Machine.mtl
o Cube
v -0.270949 -0.000000 0.270949
v -0.206718 0.410786 -0.008725
v -0.270949 -0.000000 -0.270949
v -0.206718 0.513173 -0.213499
v 0.270949 -0.000000 0.270949
v 0.206718 0.410786 -0.008725
v 0.270949 -0.000000 -0.270949
v 0.206718 0.513173 -0.213499
v -0.270949 0.270949 0.270949
v -0.270949 0.541898 -0.270949
v 0.270949 0.541898 -0.270949
v 0.270949 0.270949 0.270949
v -0.206718 0.931796 -0.008725
v -0.206718 0.931796 -0.213499
v 0.206718 0.931796 -0.213499
v 0.206718 0.931796 -0.008725
v -0.230612 0.994529 0.448272
v -0.230612 0.994529 -0.224814
v 0.230612 0.992477 -0.234055
v 0.230612 0.992477 0.457513
v -0.230612 1.143981 0.448272
v -0.230612 1.143981 -0.224814
v 0.230612 1.146033 -0.234055
v 0.230612 1.146033 0.457513
vn -1.0000 -0.0000 -0.0000
vn -0.0000 -0.0000 -1.0000
vn 1.0000 -0.0000 -0.0000
vn -0.0000 -0.0000 1.0000
vn -0.0000 -1.0000 -0.0000
vn -0.0000 0.8944 0.4472
vn -0.0108 -0.2500 -0.9682
vn -0.0037 -0.9912 0.1325
vn -0.9345 -0.3559 -0.0000
vn 0.9305 -0.3664 -0.0000
vn -0.0044 1.0000 -0.0000
vn -0.0200 -0.0000 0.9998
vn -0.0200 -0.0000 -0.9998
vt 0.375000 0.000000
vt 0.625000 0.000000
vt 0.625000 0.250000
vt 0.375000 0.250000
vt 0.625000 0.500000
vt 0.375000 0.500000
vt 0.625000 0.750000
vt 0.375000 0.750000
vt 0.625000 1.000000
vt 0.375000 1.000000
vt 0.125000 0.500000
vt 0.125000 0.750000
vt 0.654632 0.526504
vt 0.845368 0.526504
vt 0.845368 0.620975
vt 0.875000 0.500000
vt 0.875000 0.750000
vt 0.654632 0.620975
s 0
usemtl Material.001
f 1/1/1 9/2/1 10/3/1 3/4/1
f 3/4/2 10/3/2 11/5/2 7/6/2
f 7/6/3 11/5/3 12/7/3 5/8/3
f 5/8/4 12/7/4 9/9/4 1/10/4
f 3/11/5 7/6/5 5/8/5 1/12/5
f 8/13/2 4/14/2 14/14/2 15/13/2
f 2/15/6 4/14/6 10/16/6 9/17/6
f 4/14/6 8/13/6 11/5/6 10/16/6
f 8/13/6 6/18/6 12/7/6 11/5/6
f 6/18/6 2/15/6 9/17/6 12/7/6
f 6/18/3 8/13/3 15/13/3 16/18/3
f 4/14/1 2/15/1 13/15/1 14/14/1
f 2/15/4 6/18/4 16/18/4 13/15/4
f 15/13/7 14/14/7 18/14/7 19/13/7
f 13/15/8 16/18/8 20/18/8 17/15/8
f 14/14/9 13/15/9 17/15/9 18/14/9
f 16/18/10 15/13/10 19/13/10 20/18/10
f 20/18/3 19/13/3 23/13/3 24/18/3
f 23/13/11 22/14/11 21/15/11 24/18/11
f 18/14/1 17/15/1 21/15/1 22/14/1
f 17/15/12 20/18/12 24/18/12 21/15/12
f 19/13/13 18/14/13 22/14/13 23/13/13
